%TF.GenerationSoftware,KiCad,Pcbnew,(6.0.6)*%
%TF.CreationDate,2022-09-08T19:20:13+10:00*%
%TF.ProjectId,milk,6d696c6b-2e6b-4696-9361-645f70636258,rev?*%
%TF.SameCoordinates,Original*%
%TF.FileFunction,Copper,L2,Bot*%
%TF.FilePolarity,Positive*%
%FSLAX46Y46*%
G04 Gerber Fmt 4.6, Leading zero omitted, Abs format (unit mm)*
G04 Created by KiCad (PCBNEW (6.0.6)) date 2022-09-08 19:20:13*
%MOMM*%
%LPD*%
G01*
G04 APERTURE LIST*
G04 Aperture macros list*
%AMHorizOval*
0 Thick line with rounded ends*
0 $1 width*
0 $2 $3 position (X,Y) of the first rounded end (center of the circle)*
0 $4 $5 position (X,Y) of the second rounded end (center of the circle)*
0 Add line between two ends*
20,1,$1,$2,$3,$4,$5,0*
0 Add two circle primitives to create the rounded ends*
1,1,$1,$2,$3*
1,1,$1,$4,$5*%
G04 Aperture macros list end*
%TA.AperFunction,ComponentPad*%
%ADD10R,1.700000X1.700000*%
%TD*%
%TA.AperFunction,ComponentPad*%
%ADD11O,1.700000X1.700000*%
%TD*%
%TA.AperFunction,ComponentPad*%
%ADD12R,1.600000X1.600000*%
%TD*%
%TA.AperFunction,ComponentPad*%
%ADD13C,1.600000*%
%TD*%
%TA.AperFunction,ComponentPad*%
%ADD14C,2.250000*%
%TD*%
%TA.AperFunction,ComponentPad*%
%ADD15HorizOval,2.250000X-0.655001X0.730000X0.655001X-0.730000X0*%
%TD*%
%TA.AperFunction,ComponentPad*%
%ADD16HorizOval,2.250000X-0.020000X0.290000X0.020000X-0.290000X0*%
%TD*%
G04 APERTURE END LIST*
D10*
%TO.P,J1,1,Pin_1*%
%TO.N,GND*%
X224875000Y-85600000D03*
D11*
%TO.P,J1,2,Pin_2*%
%TO.N,/RGB*%
X227415000Y-85600000D03*
%TO.P,J1,3,Pin_3*%
%TO.N,VCC*%
X229955000Y-85600000D03*
%TD*%
D10*
%TO.P,J4,1,Pin_1*%
%TO.N,GND*%
X236753400Y-85775800D03*
D11*
%TO.P,J4,2,Pin_2*%
%TO.N,/RST*%
X236753400Y-83235800D03*
%TD*%
D12*
%TO.P,U1,1,TX*%
%TO.N,unconnected-(U1-Pad1)*%
X222426550Y-51537235D03*
D13*
%TO.P,U1,2,RX*%
%TO.N,unconnected-(U1-Pad2)*%
X222426550Y-54077235D03*
%TO.P,U1,3,GND*%
%TO.N,GND*%
X222426550Y-56617235D03*
%TO.P,U1,4,GND*%
X222426550Y-59157235D03*
%TO.P,U1,5,SDA*%
%TO.N,unconnected-(U1-Pad5)*%
X222426550Y-61697235D03*
%TO.P,U1,6,SCL*%
%TO.N,unconnected-(U1-Pad6)*%
X222426550Y-64237235D03*
%TO.P,U1,7,D4*%
%TO.N,/k1*%
X222426550Y-66777235D03*
%TO.P,U1,8,C6*%
%TO.N,/k2*%
X222426550Y-69317235D03*
%TO.P,U1,9,D7*%
%TO.N,/RA1*%
X222426550Y-71857235D03*
%TO.P,U1,10,E6*%
%TO.N,/RB1*%
X222426550Y-74397235D03*
%TO.P,U1,11,B4*%
%TO.N,unconnected-(U1-Pad11)*%
X222426550Y-76937235D03*
%TO.P,U1,12,B5*%
%TO.N,unconnected-(U1-Pad12)*%
X222426550Y-79477235D03*
%TO.P,U1,13,B6*%
%TO.N,/RGB*%
X237666550Y-79477235D03*
%TO.P,U1,14,B2*%
%TO.N,unconnected-(U1-Pad14)*%
X237666550Y-76937235D03*
%TO.P,U1,15,B3*%
%TO.N,unconnected-(U1-Pad15)*%
X237666550Y-74397235D03*
%TO.P,U1,16,B1*%
%TO.N,unconnected-(U1-Pad16)*%
X237666550Y-71857235D03*
%TO.P,U1,17,F7*%
%TO.N,unconnected-(U1-Pad17)*%
X237666550Y-69317235D03*
%TO.P,U1,18,F6*%
%TO.N,unconnected-(U1-Pad18)*%
X237666550Y-66777235D03*
%TO.P,U1,19,F5*%
%TO.N,unconnected-(U1-Pad19)*%
X237666550Y-64237235D03*
%TO.P,U1,20,F4*%
%TO.N,unconnected-(U1-Pad20)*%
X237666550Y-61697235D03*
%TO.P,U1,21,VCC*%
%TO.N,VCC*%
X237666550Y-59157235D03*
%TO.P,U1,22,RST*%
%TO.N,/RST*%
X237666550Y-56617235D03*
%TO.P,U1,23,GND*%
%TO.N,GND*%
X237666550Y-54077235D03*
%TO.P,U1,24,RAW*%
%TO.N,unconnected-(U1-Pad24)*%
X237666550Y-51537235D03*
%TD*%
D14*
%TO.P,K1,1,COL*%
%TO.N,/k1*%
X232546550Y-55554110D03*
D15*
X233201549Y-56284110D03*
D16*
%TO.P,K1,2,ROW*%
%TO.N,unconnected-(K1-Pad2)*%
X227526550Y-54764110D03*
D14*
X227506550Y-54474110D03*
%TD*%
%TO.P,K2,1,COL*%
%TO.N,/k2*%
X232546550Y-74604110D03*
D15*
X233201549Y-75334110D03*
D16*
%TO.P,K2,2,ROW*%
%TO.N,GND*%
X227526550Y-73814110D03*
D14*
X227506550Y-73524110D03*
%TD*%
%TA.AperFunction,Conductor*%
%TO.N,GND*%
G36*
X236615572Y-50528502D02*
G01*
X236662065Y-50582158D01*
X236672169Y-50652432D01*
X236650664Y-50706771D01*
X236529027Y-50880486D01*
X236526704Y-50885468D01*
X236526701Y-50885473D01*
X236453889Y-51041621D01*
X236432266Y-51087992D01*
X236373007Y-51309148D01*
X236353052Y-51537235D01*
X236373007Y-51765322D01*
X236432266Y-51986478D01*
X236434589Y-51991459D01*
X236434589Y-51991460D01*
X236526701Y-52188997D01*
X236526704Y-52189002D01*
X236529027Y-52193984D01*
X236660352Y-52381535D01*
X236822250Y-52543433D01*
X236826758Y-52546590D01*
X236826761Y-52546592D01*
X236868092Y-52575532D01*
X237009801Y-52674758D01*
X237014783Y-52677081D01*
X237014788Y-52677084D01*
X237049599Y-52693316D01*
X237102884Y-52740233D01*
X237122345Y-52808510D01*
X237101803Y-52876470D01*
X237049599Y-52921706D01*
X237015039Y-52937821D01*
X237005544Y-52943304D01*
X236953502Y-52979744D01*
X236945126Y-52990223D01*
X236952194Y-53003669D01*
X237653738Y-53705213D01*
X237667682Y-53712827D01*
X237669515Y-53712696D01*
X237676130Y-53708445D01*
X238381627Y-53002948D01*
X238388057Y-52991173D01*
X238378761Y-52979158D01*
X238327556Y-52943304D01*
X238318061Y-52937821D01*
X238283501Y-52921706D01*
X238230216Y-52874789D01*
X238210755Y-52806512D01*
X238231297Y-52738552D01*
X238283501Y-52693316D01*
X238318312Y-52677084D01*
X238318317Y-52677081D01*
X238323299Y-52674758D01*
X238465008Y-52575532D01*
X238506339Y-52546592D01*
X238506342Y-52546590D01*
X238510850Y-52543433D01*
X238672748Y-52381535D01*
X238804073Y-52193984D01*
X238806396Y-52189002D01*
X238806399Y-52188997D01*
X238898511Y-51991460D01*
X238898511Y-51991459D01*
X238900834Y-51986478D01*
X238960093Y-51765322D01*
X238980048Y-51537235D01*
X238960093Y-51309148D01*
X238900834Y-51087992D01*
X238879211Y-51041621D01*
X238806399Y-50885473D01*
X238806396Y-50885468D01*
X238804073Y-50880486D01*
X238682436Y-50706771D01*
X238659748Y-50639497D01*
X238677033Y-50570637D01*
X238728803Y-50522052D01*
X238785649Y-50508500D01*
X238950633Y-50508500D01*
X238970018Y-50510000D01*
X238984852Y-50512310D01*
X238984855Y-50512310D01*
X238993724Y-50513691D01*
X239002626Y-50512527D01*
X239002750Y-50512511D01*
X239033192Y-50512240D01*
X239040621Y-50513077D01*
X239095264Y-50519234D01*
X239122771Y-50525513D01*
X239199853Y-50552485D01*
X239225274Y-50564727D01*
X239294426Y-50608178D01*
X239316485Y-50625770D01*
X239374230Y-50683515D01*
X239391822Y-50705574D01*
X239435273Y-50774726D01*
X239447515Y-50800147D01*
X239474487Y-50877228D01*
X239480766Y-50904736D01*
X239487018Y-50960226D01*
X239486923Y-50975868D01*
X239487800Y-50975879D01*
X239487690Y-50984851D01*
X239486309Y-50993724D01*
X239487473Y-51002626D01*
X239487473Y-51002628D01*
X239490436Y-51025283D01*
X239491500Y-51041621D01*
X239491500Y-86950633D01*
X239490000Y-86970018D01*
X239488209Y-86981524D01*
X239486309Y-86993724D01*
X239487473Y-87002626D01*
X239487489Y-87002750D01*
X239487760Y-87033192D01*
X239485430Y-87053870D01*
X239480766Y-87095264D01*
X239474487Y-87122771D01*
X239447515Y-87199853D01*
X239435273Y-87225274D01*
X239391822Y-87294426D01*
X239374230Y-87316485D01*
X239316485Y-87374230D01*
X239294426Y-87391822D01*
X239225274Y-87435273D01*
X239199853Y-87447515D01*
X239122772Y-87474487D01*
X239095264Y-87480766D01*
X239039774Y-87487018D01*
X239024132Y-87486923D01*
X239024121Y-87487800D01*
X239015149Y-87487690D01*
X239006276Y-87486309D01*
X238997374Y-87487473D01*
X238997372Y-87487473D01*
X238986385Y-87488910D01*
X238974714Y-87490436D01*
X238958379Y-87491500D01*
X221049367Y-87491500D01*
X221029982Y-87490000D01*
X221015148Y-87487690D01*
X221015145Y-87487690D01*
X221006276Y-87486309D01*
X220997374Y-87487473D01*
X220997250Y-87487489D01*
X220966808Y-87487760D01*
X220946130Y-87485430D01*
X220904736Y-87480766D01*
X220877229Y-87474487D01*
X220800147Y-87447515D01*
X220774726Y-87435273D01*
X220705574Y-87391822D01*
X220683515Y-87374230D01*
X220625770Y-87316485D01*
X220608178Y-87294426D01*
X220564727Y-87225274D01*
X220552485Y-87199853D01*
X220525513Y-87122772D01*
X220519234Y-87095266D01*
X220513170Y-87041451D01*
X220512888Y-87016640D01*
X220513576Y-87012552D01*
X220513729Y-87000000D01*
X220509773Y-86972376D01*
X220508500Y-86954514D01*
X220508500Y-86494669D01*
X223517001Y-86494669D01*
X223517371Y-86501490D01*
X223522895Y-86552352D01*
X223526521Y-86567604D01*
X223571676Y-86688054D01*
X223580214Y-86703649D01*
X223656715Y-86805724D01*
X223669276Y-86818285D01*
X223771351Y-86894786D01*
X223786946Y-86903324D01*
X223907394Y-86948478D01*
X223922649Y-86952105D01*
X223973514Y-86957631D01*
X223980328Y-86958000D01*
X224602885Y-86958000D01*
X224618124Y-86953525D01*
X224619329Y-86952135D01*
X224621000Y-86944452D01*
X224621000Y-86939884D01*
X225129000Y-86939884D01*
X225133475Y-86955123D01*
X225134865Y-86956328D01*
X225142548Y-86957999D01*
X225769669Y-86957999D01*
X225776490Y-86957629D01*
X225827352Y-86952105D01*
X225842604Y-86948479D01*
X225963054Y-86903324D01*
X225978649Y-86894786D01*
X226080724Y-86818285D01*
X226093285Y-86805724D01*
X226169786Y-86703649D01*
X226178324Y-86688054D01*
X226219225Y-86578952D01*
X226261867Y-86522188D01*
X226328428Y-86497488D01*
X226397777Y-86512696D01*
X226432444Y-86540684D01*
X226457865Y-86570031D01*
X226457869Y-86570035D01*
X226461250Y-86573938D01*
X226633126Y-86716632D01*
X226826000Y-86829338D01*
X227034692Y-86909030D01*
X227039760Y-86910061D01*
X227039763Y-86910062D01*
X227147017Y-86931883D01*
X227253597Y-86953567D01*
X227258772Y-86953757D01*
X227258774Y-86953757D01*
X227471673Y-86961564D01*
X227471677Y-86961564D01*
X227476837Y-86961753D01*
X227481957Y-86961097D01*
X227481959Y-86961097D01*
X227693288Y-86934025D01*
X227693289Y-86934025D01*
X227698416Y-86933368D01*
X227703366Y-86931883D01*
X227907429Y-86870661D01*
X227907434Y-86870659D01*
X227912384Y-86869174D01*
X228112994Y-86770896D01*
X228294860Y-86641173D01*
X228453096Y-86483489D01*
X228583453Y-86302077D01*
X228584776Y-86303028D01*
X228631645Y-86259857D01*
X228701580Y-86247625D01*
X228767026Y-86275144D01*
X228794875Y-86306994D01*
X228854987Y-86405088D01*
X229001250Y-86573938D01*
X229173126Y-86716632D01*
X229366000Y-86829338D01*
X229574692Y-86909030D01*
X229579760Y-86910061D01*
X229579763Y-86910062D01*
X229687017Y-86931883D01*
X229793597Y-86953567D01*
X229798772Y-86953757D01*
X229798774Y-86953757D01*
X230011673Y-86961564D01*
X230011677Y-86961564D01*
X230016837Y-86961753D01*
X230021957Y-86961097D01*
X230021959Y-86961097D01*
X230233288Y-86934025D01*
X230233289Y-86934025D01*
X230238416Y-86933368D01*
X230243366Y-86931883D01*
X230447429Y-86870661D01*
X230447434Y-86870659D01*
X230452384Y-86869174D01*
X230652994Y-86770896D01*
X230793788Y-86670469D01*
X235395401Y-86670469D01*
X235395771Y-86677290D01*
X235401295Y-86728152D01*
X235404921Y-86743404D01*
X235450076Y-86863854D01*
X235458614Y-86879449D01*
X235535115Y-86981524D01*
X235547676Y-86994085D01*
X235649751Y-87070586D01*
X235665346Y-87079124D01*
X235785794Y-87124278D01*
X235801049Y-87127905D01*
X235851914Y-87133431D01*
X235858728Y-87133800D01*
X236481285Y-87133800D01*
X236496524Y-87129325D01*
X236497729Y-87127935D01*
X236499400Y-87120252D01*
X236499400Y-87115684D01*
X237007400Y-87115684D01*
X237011875Y-87130923D01*
X237013265Y-87132128D01*
X237020948Y-87133799D01*
X237648069Y-87133799D01*
X237654890Y-87133429D01*
X237705752Y-87127905D01*
X237721004Y-87124279D01*
X237841454Y-87079124D01*
X237857049Y-87070586D01*
X237959124Y-86994085D01*
X237971685Y-86981524D01*
X238048186Y-86879449D01*
X238056724Y-86863854D01*
X238101878Y-86743406D01*
X238105505Y-86728151D01*
X238111031Y-86677286D01*
X238111400Y-86670472D01*
X238111400Y-86047915D01*
X238106925Y-86032676D01*
X238105535Y-86031471D01*
X238097852Y-86029800D01*
X237025515Y-86029800D01*
X237010276Y-86034275D01*
X237009071Y-86035665D01*
X237007400Y-86043348D01*
X237007400Y-87115684D01*
X236499400Y-87115684D01*
X236499400Y-86047915D01*
X236494925Y-86032676D01*
X236493535Y-86031471D01*
X236485852Y-86029800D01*
X235413516Y-86029800D01*
X235398277Y-86034275D01*
X235397072Y-86035665D01*
X235395401Y-86043348D01*
X235395401Y-86670469D01*
X230793788Y-86670469D01*
X230834860Y-86641173D01*
X230993096Y-86483489D01*
X231123453Y-86302077D01*
X231144320Y-86259857D01*
X231220136Y-86106453D01*
X231220137Y-86106451D01*
X231222430Y-86101811D01*
X231287370Y-85888069D01*
X231316529Y-85666590D01*
X231318156Y-85600000D01*
X231299852Y-85377361D01*
X231245431Y-85160702D01*
X231156354Y-84955840D01*
X231103610Y-84874310D01*
X231037822Y-84772617D01*
X231037820Y-84772614D01*
X231035014Y-84768277D01*
X230884670Y-84603051D01*
X230880619Y-84599852D01*
X230880615Y-84599848D01*
X230713414Y-84467800D01*
X230713410Y-84467798D01*
X230709359Y-84464598D01*
X230513789Y-84356638D01*
X230508920Y-84354914D01*
X230508916Y-84354912D01*
X230308087Y-84283795D01*
X230308083Y-84283794D01*
X230303212Y-84282069D01*
X230298119Y-84281162D01*
X230298116Y-84281161D01*
X230088373Y-84243800D01*
X230088367Y-84243799D01*
X230083284Y-84242894D01*
X230009452Y-84241992D01*
X229865081Y-84240228D01*
X229865079Y-84240228D01*
X229859911Y-84240165D01*
X229639091Y-84273955D01*
X229426756Y-84343357D01*
X229228607Y-84446507D01*
X229224474Y-84449610D01*
X229224471Y-84449612D01*
X229064028Y-84570076D01*
X229049965Y-84580635D01*
X228895629Y-84742138D01*
X228788201Y-84899621D01*
X228733293Y-84944621D01*
X228662768Y-84952792D01*
X228599021Y-84921538D01*
X228578324Y-84897054D01*
X228497822Y-84772617D01*
X228497820Y-84772614D01*
X228495014Y-84768277D01*
X228344670Y-84603051D01*
X228340619Y-84599852D01*
X228340615Y-84599848D01*
X228173414Y-84467800D01*
X228173410Y-84467798D01*
X228169359Y-84464598D01*
X227973789Y-84356638D01*
X227968920Y-84354914D01*
X227968916Y-84354912D01*
X227768087Y-84283795D01*
X227768083Y-84283794D01*
X227763212Y-84282069D01*
X227758119Y-84281162D01*
X227758116Y-84281161D01*
X227548373Y-84243800D01*
X227548367Y-84243799D01*
X227543284Y-84242894D01*
X227469452Y-84241992D01*
X227325081Y-84240228D01*
X227325079Y-84240228D01*
X227319911Y-84240165D01*
X227099091Y-84273955D01*
X226886756Y-84343357D01*
X226688607Y-84446507D01*
X226684474Y-84449610D01*
X226684471Y-84449612D01*
X226524028Y-84570076D01*
X226509965Y-84580635D01*
X226493798Y-84597553D01*
X226428898Y-84665466D01*
X226367374Y-84700895D01*
X226296462Y-84697438D01*
X226238676Y-84656192D01*
X226219823Y-84622644D01*
X226178324Y-84511946D01*
X226169786Y-84496351D01*
X226093285Y-84394276D01*
X226080724Y-84381715D01*
X225978649Y-84305214D01*
X225963054Y-84296676D01*
X225842606Y-84251522D01*
X225827351Y-84247895D01*
X225776486Y-84242369D01*
X225769672Y-84242000D01*
X225147115Y-84242000D01*
X225131876Y-84246475D01*
X225130671Y-84247865D01*
X225129000Y-84255548D01*
X225129000Y-86939884D01*
X224621000Y-86939884D01*
X224621000Y-85872115D01*
X224616525Y-85856876D01*
X224615135Y-85855671D01*
X224607452Y-85854000D01*
X223535116Y-85854000D01*
X223519877Y-85858475D01*
X223518672Y-85859865D01*
X223517001Y-85867548D01*
X223517001Y-86494669D01*
X220508500Y-86494669D01*
X220508500Y-85327885D01*
X223517000Y-85327885D01*
X223521475Y-85343124D01*
X223522865Y-85344329D01*
X223530548Y-85346000D01*
X224602885Y-85346000D01*
X224618124Y-85341525D01*
X224619329Y-85340135D01*
X224621000Y-85332452D01*
X224621000Y-84260116D01*
X224616525Y-84244877D01*
X224615135Y-84243672D01*
X224607452Y-84242001D01*
X223980331Y-84242001D01*
X223973510Y-84242371D01*
X223922648Y-84247895D01*
X223907396Y-84251521D01*
X223786946Y-84296676D01*
X223771351Y-84305214D01*
X223669276Y-84381715D01*
X223656715Y-84394276D01*
X223580214Y-84496351D01*
X223571676Y-84511946D01*
X223526522Y-84632394D01*
X223522895Y-84647649D01*
X223517369Y-84698514D01*
X223517000Y-84705328D01*
X223517000Y-85327885D01*
X220508500Y-85327885D01*
X220508500Y-83202495D01*
X235390651Y-83202495D01*
X235390948Y-83207648D01*
X235390948Y-83207651D01*
X235396411Y-83302390D01*
X235403510Y-83425515D01*
X235404647Y-83430561D01*
X235404648Y-83430567D01*
X235424519Y-83518739D01*
X235452622Y-83643439D01*
X235536666Y-83850416D01*
X235653387Y-84040888D01*
X235799650Y-84209738D01*
X235803625Y-84213038D01*
X235803631Y-84213044D01*
X235808825Y-84217356D01*
X235848459Y-84276260D01*
X235849955Y-84347241D01*
X235812839Y-84407762D01*
X235772568Y-84432280D01*
X235665346Y-84472476D01*
X235649751Y-84481014D01*
X235547676Y-84557515D01*
X235535115Y-84570076D01*
X235458614Y-84672151D01*
X235450076Y-84687746D01*
X235404922Y-84808194D01*
X235401295Y-84823449D01*
X235395769Y-84874314D01*
X235395400Y-84881128D01*
X235395400Y-85503685D01*
X235399875Y-85518924D01*
X235401265Y-85520129D01*
X235408948Y-85521800D01*
X238093284Y-85521800D01*
X238108523Y-85517325D01*
X238109728Y-85515935D01*
X238111399Y-85508252D01*
X238111399Y-84881131D01*
X238111029Y-84874310D01*
X238105505Y-84823448D01*
X238101879Y-84808196D01*
X238056724Y-84687746D01*
X238048186Y-84672151D01*
X237971685Y-84570076D01*
X237959124Y-84557515D01*
X237857049Y-84481014D01*
X237841454Y-84472476D01*
X237731213Y-84431148D01*
X237674449Y-84388506D01*
X237649749Y-84321945D01*
X237664957Y-84252596D01*
X237686504Y-84223915D01*
X237787830Y-84122944D01*
X237787840Y-84122932D01*
X237791496Y-84119289D01*
X237850994Y-84036489D01*
X237918835Y-83942077D01*
X237921853Y-83937877D01*
X238020830Y-83737611D01*
X238085770Y-83523869D01*
X238114929Y-83302390D01*
X238116556Y-83235800D01*
X238098252Y-83013161D01*
X238043831Y-82796502D01*
X237954754Y-82591640D01*
X237833414Y-82404077D01*
X237683070Y-82238851D01*
X237679019Y-82235652D01*
X237679015Y-82235648D01*
X237511814Y-82103600D01*
X237511810Y-82103598D01*
X237507759Y-82100398D01*
X237312189Y-81992438D01*
X237307320Y-81990714D01*
X237307316Y-81990712D01*
X237106487Y-81919595D01*
X237106483Y-81919594D01*
X237101612Y-81917869D01*
X237096519Y-81916962D01*
X237096516Y-81916961D01*
X236886773Y-81879600D01*
X236886767Y-81879599D01*
X236881684Y-81878694D01*
X236807852Y-81877792D01*
X236663481Y-81876028D01*
X236663479Y-81876028D01*
X236658311Y-81875965D01*
X236437491Y-81909755D01*
X236225156Y-81979157D01*
X236027007Y-82082307D01*
X236022874Y-82085410D01*
X236022871Y-82085412D01*
X235998647Y-82103600D01*
X235848365Y-82216435D01*
X235694029Y-82377938D01*
X235568143Y-82562480D01*
X235474088Y-82765105D01*
X235414389Y-82980370D01*
X235390651Y-83202495D01*
X220508500Y-83202495D01*
X220508500Y-79477235D01*
X221113052Y-79477235D01*
X221133007Y-79705322D01*
X221192266Y-79926478D01*
X221194589Y-79931459D01*
X221194589Y-79931460D01*
X221286701Y-80128997D01*
X221286704Y-80129002D01*
X221289027Y-80133984D01*
X221420352Y-80321535D01*
X221582250Y-80483433D01*
X221586758Y-80486590D01*
X221586761Y-80486592D01*
X221664939Y-80541333D01*
X221769801Y-80614758D01*
X221774783Y-80617081D01*
X221774788Y-80617084D01*
X221972325Y-80709196D01*
X221977307Y-80711519D01*
X221982615Y-80712941D01*
X221982617Y-80712942D01*
X222193148Y-80769354D01*
X222193150Y-80769354D01*
X222198463Y-80770778D01*
X222426550Y-80790733D01*
X222654637Y-80770778D01*
X222659950Y-80769354D01*
X222659952Y-80769354D01*
X222870483Y-80712942D01*
X222870485Y-80712941D01*
X222875793Y-80711519D01*
X222880775Y-80709196D01*
X223078312Y-80617084D01*
X223078317Y-80617081D01*
X223083299Y-80614758D01*
X223188161Y-80541333D01*
X223266339Y-80486592D01*
X223266342Y-80486590D01*
X223270850Y-80483433D01*
X223432748Y-80321535D01*
X223564073Y-80133984D01*
X223566396Y-80129002D01*
X223566399Y-80128997D01*
X223658511Y-79931460D01*
X223658511Y-79931459D01*
X223660834Y-79926478D01*
X223720093Y-79705322D01*
X223720572Y-79699846D01*
X223720573Y-79699841D01*
X223728099Y-79613810D01*
X223753962Y-79547692D01*
X223811466Y-79506052D01*
X223882353Y-79502111D01*
X223948785Y-79542210D01*
X223998535Y-79599542D01*
X224002667Y-79602930D01*
X224175966Y-79745027D01*
X224175972Y-79745031D01*
X224180094Y-79748411D01*
X224184730Y-79751050D01*
X224184733Y-79751052D01*
X224295958Y-79814365D01*
X224384140Y-79864561D01*
X224604839Y-79944671D01*
X224610088Y-79945620D01*
X224610091Y-79945621D01*
X224691165Y-79960281D01*
X224835880Y-79986450D01*
X224840019Y-79986645D01*
X224840026Y-79986646D01*
X224858990Y-79987540D01*
X224858999Y-79987540D01*
X224860479Y-79987610D01*
X225025500Y-79987610D01*
X225106849Y-79980707D01*
X225195187Y-79973212D01*
X225195191Y-79973211D01*
X225200498Y-79972761D01*
X225205653Y-79971423D01*
X225205659Y-79971422D01*
X225422585Y-79915119D01*
X225422584Y-79915119D01*
X225427756Y-79913777D01*
X225432622Y-79911585D01*
X225432625Y-79911584D01*
X225636967Y-79819534D01*
X225636970Y-79819533D01*
X225641828Y-79817344D01*
X225836591Y-79686222D01*
X226006477Y-79524159D01*
X226146628Y-79335789D01*
X226187893Y-79254628D01*
X226250619Y-79131254D01*
X226250619Y-79131253D01*
X226253037Y-79126498D01*
X226322661Y-78902270D01*
X226333501Y-78820486D01*
X226341313Y-78761548D01*
X227544150Y-78761548D01*
X227583614Y-79073940D01*
X227661920Y-79378923D01*
X227777834Y-79671687D01*
X227779736Y-79675146D01*
X227779737Y-79675149D01*
X227911662Y-79915119D01*
X227929526Y-79947614D01*
X228114605Y-80202354D01*
X228330152Y-80431888D01*
X228572768Y-80632597D01*
X228838626Y-80801316D01*
X228842205Y-80803000D01*
X228842212Y-80803004D01*
X229119944Y-80933694D01*
X229119948Y-80933696D01*
X229123534Y-80935383D01*
X229422998Y-81032685D01*
X229732296Y-81091687D01*
X229825850Y-81097573D01*
X229965908Y-81106385D01*
X229965924Y-81106386D01*
X229967903Y-81106510D01*
X230125197Y-81106510D01*
X230127176Y-81106386D01*
X230127192Y-81106385D01*
X230267250Y-81097573D01*
X230360804Y-81091687D01*
X230670102Y-81032685D01*
X230969566Y-80935383D01*
X230973152Y-80933696D01*
X230973156Y-80933694D01*
X231250888Y-80803004D01*
X231250895Y-80803000D01*
X231254474Y-80801316D01*
X231520332Y-80632597D01*
X231762948Y-80431888D01*
X231978495Y-80202354D01*
X232163574Y-79947614D01*
X232181439Y-79915119D01*
X232313363Y-79675149D01*
X232313364Y-79675146D01*
X232315266Y-79671687D01*
X232431180Y-79378923D01*
X232509486Y-79073940D01*
X232548950Y-78761548D01*
X232548950Y-78446672D01*
X232509486Y-78134280D01*
X232431180Y-77829297D01*
X232315266Y-77536533D01*
X232309299Y-77525679D01*
X232165483Y-77264078D01*
X232165481Y-77264075D01*
X232163574Y-77260606D01*
X231978495Y-77005866D01*
X231762948Y-76776332D01*
X231520332Y-76575623D01*
X231337040Y-76459302D01*
X231257821Y-76409028D01*
X231257820Y-76409028D01*
X231254474Y-76406904D01*
X231250895Y-76405220D01*
X231250888Y-76405216D01*
X230973156Y-76274526D01*
X230973152Y-76274524D01*
X230969566Y-76272837D01*
X230670102Y-76175535D01*
X230360804Y-76116533D01*
X230267250Y-76110647D01*
X230127192Y-76101835D01*
X230127176Y-76101834D01*
X230125197Y-76101710D01*
X229967903Y-76101710D01*
X229965924Y-76101834D01*
X229965908Y-76101835D01*
X229825850Y-76110647D01*
X229732296Y-76116533D01*
X229422998Y-76175535D01*
X229123534Y-76272837D01*
X229119948Y-76274524D01*
X229119944Y-76274526D01*
X228842212Y-76405216D01*
X228842205Y-76405220D01*
X228838626Y-76406904D01*
X228835280Y-76409028D01*
X228835279Y-76409028D01*
X228756060Y-76459302D01*
X228572768Y-76575623D01*
X228330152Y-76776332D01*
X228114605Y-77005866D01*
X227929526Y-77260606D01*
X227927619Y-77264075D01*
X227927617Y-77264078D01*
X227783801Y-77525679D01*
X227777834Y-77536533D01*
X227661920Y-77829297D01*
X227583614Y-78134280D01*
X227544150Y-78446672D01*
X227544150Y-78761548D01*
X226341313Y-78761548D01*
X226352811Y-78674800D01*
X226352811Y-78674797D01*
X226353511Y-78669517D01*
X226344702Y-78434894D01*
X226320895Y-78321430D01*
X226297585Y-78210336D01*
X226297584Y-78210333D01*
X226296488Y-78205109D01*
X226210248Y-77986733D01*
X226088446Y-77786010D01*
X225934565Y-77608678D01*
X225910562Y-77588997D01*
X225757134Y-77463193D01*
X225757128Y-77463189D01*
X225753006Y-77459809D01*
X225748370Y-77457170D01*
X225748367Y-77457168D01*
X225553603Y-77346302D01*
X225548960Y-77343659D01*
X225328261Y-77263549D01*
X225323012Y-77262600D01*
X225323009Y-77262599D01*
X225241935Y-77247939D01*
X225097220Y-77221770D01*
X225093081Y-77221575D01*
X225093074Y-77221574D01*
X225074110Y-77220680D01*
X225074101Y-77220680D01*
X225072621Y-77220610D01*
X224907600Y-77220610D01*
X224826251Y-77227513D01*
X224737913Y-77235008D01*
X224737909Y-77235009D01*
X224732602Y-77235459D01*
X224727447Y-77236797D01*
X224727441Y-77236798D01*
X224549727Y-77282924D01*
X224505344Y-77294443D01*
X224500478Y-77296635D01*
X224500475Y-77296636D01*
X224296133Y-77388686D01*
X224296130Y-77388687D01*
X224291272Y-77390876D01*
X224096509Y-77521998D01*
X223926623Y-77684061D01*
X223786472Y-77872431D01*
X223784056Y-77877182D01*
X223784054Y-77877186D01*
X223685209Y-78071601D01*
X223680063Y-78081722D01*
X223610439Y-78305950D01*
X223609738Y-78311239D01*
X223584910Y-78498555D01*
X223556130Y-78563457D01*
X223496831Y-78602497D01*
X223425838Y-78603279D01*
X223370907Y-78571094D01*
X223270850Y-78471037D01*
X223266342Y-78467880D01*
X223266339Y-78467878D01*
X223188161Y-78413137D01*
X223083299Y-78339712D01*
X223078317Y-78337389D01*
X223078312Y-78337386D01*
X223044093Y-78321430D01*
X222990808Y-78274513D01*
X222971347Y-78206236D01*
X222991889Y-78138276D01*
X223044093Y-78093040D01*
X223078312Y-78077084D01*
X223078317Y-78077081D01*
X223083299Y-78074758D01*
X223201915Y-77991702D01*
X223266339Y-77946592D01*
X223266342Y-77946590D01*
X223270850Y-77943433D01*
X223432748Y-77781535D01*
X223564073Y-77593984D01*
X223566396Y-77589002D01*
X223566399Y-77588997D01*
X223658511Y-77391460D01*
X223658511Y-77391459D01*
X223660834Y-77386478D01*
X223672308Y-77343659D01*
X223718669Y-77170637D01*
X223718669Y-77170635D01*
X223720093Y-77165322D01*
X223740048Y-76937235D01*
X223720093Y-76709148D01*
X223660834Y-76487992D01*
X223623333Y-76407570D01*
X223566399Y-76285473D01*
X223566396Y-76285468D01*
X223564073Y-76280486D01*
X223474602Y-76152709D01*
X223435907Y-76097446D01*
X223435905Y-76097443D01*
X223432748Y-76092935D01*
X223270850Y-75931037D01*
X223266342Y-75927880D01*
X223266339Y-75927878D01*
X223188161Y-75873137D01*
X223083299Y-75799712D01*
X223078317Y-75797389D01*
X223078312Y-75797386D01*
X223044093Y-75781430D01*
X222990808Y-75734513D01*
X222971347Y-75666236D01*
X222991889Y-75598276D01*
X223044093Y-75553040D01*
X223078312Y-75537084D01*
X223078317Y-75537081D01*
X223083299Y-75534758D01*
X223188161Y-75461333D01*
X223266339Y-75406592D01*
X223266342Y-75406590D01*
X223270850Y-75403433D01*
X223432748Y-75241535D01*
X223564073Y-75053984D01*
X223566396Y-75049002D01*
X223566399Y-75048997D01*
X223658511Y-74851460D01*
X223658511Y-74851459D01*
X223660834Y-74846478D01*
X223670655Y-74809828D01*
X223718669Y-74630637D01*
X223718669Y-74630635D01*
X223720093Y-74625322D01*
X223740048Y-74397235D01*
X223722213Y-74193380D01*
X225915828Y-74193380D01*
X225921664Y-74278003D01*
X225922198Y-74282927D01*
X225949404Y-74466165D01*
X225951617Y-74475793D01*
X226025706Y-74711558D01*
X226029394Y-74720713D01*
X226139454Y-74941988D01*
X226144534Y-74950460D01*
X226287858Y-75151800D01*
X226294185Y-75159356D01*
X226467250Y-75335804D01*
X226474682Y-75342277D01*
X226673207Y-75489473D01*
X226681579Y-75494716D01*
X226900682Y-75609040D01*
X226909762Y-75612905D01*
X227144063Y-75691550D01*
X227153629Y-75693944D01*
X227391935Y-75734058D01*
X227401198Y-75731436D01*
X227403373Y-75719792D01*
X227291875Y-74103059D01*
X227286361Y-74088160D01*
X227284892Y-74087055D01*
X227277110Y-74085916D01*
X225932971Y-74178615D01*
X225918072Y-74184129D01*
X225916967Y-74185598D01*
X225915828Y-74193380D01*
X223722213Y-74193380D01*
X223720093Y-74169148D01*
X223718669Y-74163833D01*
X223691798Y-74063550D01*
X227798356Y-74063550D01*
X227910027Y-75682785D01*
X227915381Y-75697250D01*
X227921773Y-75697931D01*
X228153998Y-75624954D01*
X228163153Y-75621266D01*
X228384430Y-75511204D01*
X228392895Y-75506129D01*
X228594235Y-75362807D01*
X228601802Y-75356470D01*
X228778244Y-75183411D01*
X228784717Y-75175979D01*
X228931913Y-74977454D01*
X228937156Y-74969082D01*
X229051480Y-74749979D01*
X229055345Y-74740899D01*
X229101259Y-74604110D01*
X230907999Y-74604110D01*
X230909669Y-74625322D01*
X230914349Y-74684788D01*
X230914698Y-74691584D01*
X230916678Y-74772553D01*
X230917573Y-74777428D01*
X230923519Y-74809828D01*
X230925201Y-74822687D01*
X230928172Y-74860436D01*
X230947065Y-74939134D01*
X230948472Y-74945782D01*
X230962199Y-75020574D01*
X230962201Y-75020581D01*
X230963094Y-75025447D01*
X230975685Y-75061199D01*
X230979355Y-75073628D01*
X230988195Y-75110450D01*
X231012922Y-75170146D01*
X231019160Y-75185206D01*
X231021597Y-75191571D01*
X231046855Y-75263294D01*
X231046858Y-75263301D01*
X231048501Y-75267966D01*
X231066529Y-75301307D01*
X231072097Y-75313008D01*
X231084693Y-75343419D01*
X231084697Y-75343427D01*
X231086590Y-75347997D01*
X231089176Y-75352216D01*
X231089179Y-75352223D01*
X231128876Y-75417003D01*
X231132278Y-75422907D01*
X231170794Y-75494139D01*
X231183842Y-75511204D01*
X231193814Y-75524247D01*
X231201148Y-75534937D01*
X231220934Y-75567226D01*
X231224150Y-75570991D01*
X231273486Y-75628757D01*
X231277770Y-75634056D01*
X231287861Y-75647254D01*
X231316410Y-75679072D01*
X231318430Y-75681380D01*
X231387919Y-75762741D01*
X231396808Y-75770332D01*
X231408753Y-75781989D01*
X231856036Y-76280486D01*
X232654735Y-77170637D01*
X232683587Y-77202793D01*
X232823165Y-77335709D01*
X233034809Y-77481711D01*
X233039278Y-77483852D01*
X233262225Y-77590669D01*
X233262228Y-77590670D01*
X233266688Y-77592807D01*
X233271430Y-77594221D01*
X233271431Y-77594221D01*
X233308563Y-77605290D01*
X233513091Y-77666260D01*
X233767951Y-77700265D01*
X233772905Y-77700144D01*
X233772907Y-77700144D01*
X233790412Y-77699716D01*
X233826257Y-77698839D01*
X233894846Y-77717169D01*
X233942637Y-77769672D01*
X233954456Y-77839678D01*
X233941654Y-77881905D01*
X233842483Y-78076961D01*
X233842481Y-78076966D01*
X233840063Y-78081722D01*
X233770439Y-78305950D01*
X233769738Y-78311239D01*
X233752642Y-78440226D01*
X233739589Y-78538703D01*
X233739789Y-78544032D01*
X233739789Y-78544033D01*
X233742102Y-78605639D01*
X233748398Y-78773326D01*
X233749493Y-78778544D01*
X233774344Y-78896981D01*
X233796612Y-79003111D01*
X233882852Y-79221487D01*
X234004654Y-79422210D01*
X234158535Y-79599542D01*
X234162667Y-79602930D01*
X234335966Y-79745027D01*
X234335972Y-79745031D01*
X234340094Y-79748411D01*
X234344730Y-79751050D01*
X234344733Y-79751052D01*
X234455958Y-79814365D01*
X234544140Y-79864561D01*
X234764839Y-79944671D01*
X234770088Y-79945620D01*
X234770091Y-79945621D01*
X234851165Y-79960281D01*
X234995880Y-79986450D01*
X235000019Y-79986645D01*
X235000026Y-79986646D01*
X235018990Y-79987540D01*
X235018999Y-79987540D01*
X235020479Y-79987610D01*
X235185500Y-79987610D01*
X235266849Y-79980707D01*
X235355187Y-79973212D01*
X235355191Y-79973211D01*
X235360498Y-79972761D01*
X235365653Y-79971423D01*
X235365659Y-79971422D01*
X235582585Y-79915119D01*
X235582584Y-79915119D01*
X235587756Y-79913777D01*
X235592622Y-79911585D01*
X235592625Y-79911584D01*
X235796967Y-79819534D01*
X235796970Y-79819533D01*
X235801828Y-79817344D01*
X235996591Y-79686222D01*
X236072499Y-79613810D01*
X236152820Y-79537187D01*
X236215917Y-79504640D01*
X236286594Y-79511372D01*
X236342411Y-79555245D01*
X236365313Y-79617376D01*
X236372527Y-79699841D01*
X236372528Y-79699846D01*
X236373007Y-79705322D01*
X236432266Y-79926478D01*
X236434589Y-79931459D01*
X236434589Y-79931460D01*
X236526701Y-80128997D01*
X236526704Y-80129002D01*
X236529027Y-80133984D01*
X236660352Y-80321535D01*
X236822250Y-80483433D01*
X236826758Y-80486590D01*
X236826761Y-80486592D01*
X236904939Y-80541333D01*
X237009801Y-80614758D01*
X237014783Y-80617081D01*
X237014788Y-80617084D01*
X237212325Y-80709196D01*
X237217307Y-80711519D01*
X237222615Y-80712941D01*
X237222617Y-80712942D01*
X237433148Y-80769354D01*
X237433150Y-80769354D01*
X237438463Y-80770778D01*
X237666550Y-80790733D01*
X237894637Y-80770778D01*
X237899950Y-80769354D01*
X237899952Y-80769354D01*
X238110483Y-80712942D01*
X238110485Y-80712941D01*
X238115793Y-80711519D01*
X238120775Y-80709196D01*
X238318312Y-80617084D01*
X238318317Y-80617081D01*
X238323299Y-80614758D01*
X238428161Y-80541333D01*
X238506339Y-80486592D01*
X238506342Y-80486590D01*
X238510850Y-80483433D01*
X238672748Y-80321535D01*
X238804073Y-80133984D01*
X238806396Y-80129002D01*
X238806399Y-80128997D01*
X238898511Y-79931460D01*
X238898511Y-79931459D01*
X238900834Y-79926478D01*
X238960093Y-79705322D01*
X238980048Y-79477235D01*
X238960093Y-79249148D01*
X238951350Y-79216518D01*
X238902257Y-79033302D01*
X238902256Y-79033300D01*
X238900834Y-79027992D01*
X238898511Y-79023010D01*
X238806399Y-78825473D01*
X238806396Y-78825468D01*
X238804073Y-78820486D01*
X238672748Y-78632935D01*
X238510850Y-78471037D01*
X238506342Y-78467880D01*
X238506339Y-78467878D01*
X238428161Y-78413137D01*
X238323299Y-78339712D01*
X238318317Y-78337389D01*
X238318312Y-78337386D01*
X238284093Y-78321430D01*
X238230808Y-78274513D01*
X238211347Y-78206236D01*
X238231889Y-78138276D01*
X238284093Y-78093040D01*
X238318312Y-78077084D01*
X238318317Y-78077081D01*
X238323299Y-78074758D01*
X238441915Y-77991702D01*
X238506339Y-77946592D01*
X238506342Y-77946590D01*
X238510850Y-77943433D01*
X238672748Y-77781535D01*
X238804073Y-77593984D01*
X238806396Y-77589002D01*
X238806399Y-77588997D01*
X238898511Y-77391460D01*
X238898511Y-77391459D01*
X238900834Y-77386478D01*
X238912308Y-77343659D01*
X238958669Y-77170637D01*
X238958669Y-77170635D01*
X238960093Y-77165322D01*
X238980048Y-76937235D01*
X238960093Y-76709148D01*
X238900834Y-76487992D01*
X238863333Y-76407570D01*
X238806399Y-76285473D01*
X238806396Y-76285468D01*
X238804073Y-76280486D01*
X238714602Y-76152709D01*
X238675907Y-76097446D01*
X238675905Y-76097443D01*
X238672748Y-76092935D01*
X238510850Y-75931037D01*
X238506342Y-75927880D01*
X238506339Y-75927878D01*
X238428161Y-75873137D01*
X238323299Y-75799712D01*
X238318317Y-75797389D01*
X238318312Y-75797386D01*
X238284093Y-75781430D01*
X238230808Y-75734513D01*
X238211347Y-75666236D01*
X238231889Y-75598276D01*
X238284093Y-75553040D01*
X238318312Y-75537084D01*
X238318317Y-75537081D01*
X238323299Y-75534758D01*
X238428161Y-75461333D01*
X238506339Y-75406592D01*
X238506342Y-75406590D01*
X238510850Y-75403433D01*
X238672748Y-75241535D01*
X238804073Y-75053984D01*
X238806396Y-75049002D01*
X238806399Y-75048997D01*
X238898511Y-74851460D01*
X238898511Y-74851459D01*
X238900834Y-74846478D01*
X238910655Y-74809828D01*
X238958669Y-74630637D01*
X238958669Y-74630635D01*
X238960093Y-74625322D01*
X238980048Y-74397235D01*
X238960093Y-74169148D01*
X238958669Y-74163833D01*
X238902257Y-73953302D01*
X238902256Y-73953300D01*
X238900834Y-73947992D01*
X238859907Y-73860223D01*
X238806399Y-73745473D01*
X238806396Y-73745468D01*
X238804073Y-73740486D01*
X238730648Y-73635624D01*
X238675907Y-73557446D01*
X238675905Y-73557443D01*
X238672748Y-73552935D01*
X238510850Y-73391037D01*
X238506342Y-73387880D01*
X238506339Y-73387878D01*
X238350122Y-73278494D01*
X238323299Y-73259712D01*
X238318317Y-73257389D01*
X238318312Y-73257386D01*
X238284093Y-73241430D01*
X238230808Y-73194513D01*
X238211347Y-73126236D01*
X238231889Y-73058276D01*
X238284093Y-73013040D01*
X238318312Y-72997084D01*
X238318317Y-72997081D01*
X238323299Y-72994758D01*
X238489698Y-72878244D01*
X238506339Y-72866592D01*
X238506342Y-72866590D01*
X238510850Y-72863433D01*
X238672748Y-72701535D01*
X238804073Y-72513984D01*
X238806396Y-72509002D01*
X238806399Y-72508997D01*
X238898511Y-72311460D01*
X238898511Y-72311459D01*
X238900834Y-72306478D01*
X238925835Y-72213176D01*
X238958669Y-72090637D01*
X238958669Y-72090635D01*
X238960093Y-72085322D01*
X238980048Y-71857235D01*
X238960093Y-71629148D01*
X238900834Y-71407992D01*
X238898511Y-71403010D01*
X238806399Y-71205473D01*
X238806396Y-71205468D01*
X238804073Y-71200486D01*
X238672748Y-71012935D01*
X238510850Y-70851037D01*
X238506342Y-70847880D01*
X238506339Y-70847878D01*
X238428161Y-70793137D01*
X238323299Y-70719712D01*
X238318317Y-70717389D01*
X238318312Y-70717386D01*
X238284093Y-70701430D01*
X238230808Y-70654513D01*
X238211347Y-70586236D01*
X238231889Y-70518276D01*
X238284093Y-70473040D01*
X238318312Y-70457084D01*
X238318317Y-70457081D01*
X238323299Y-70454758D01*
X238428161Y-70381333D01*
X238506339Y-70326592D01*
X238506342Y-70326590D01*
X238510850Y-70323433D01*
X238672748Y-70161535D01*
X238804073Y-69973984D01*
X238806396Y-69969002D01*
X238806399Y-69968997D01*
X238898511Y-69771460D01*
X238898511Y-69771459D01*
X238900834Y-69766478D01*
X238960093Y-69545322D01*
X238980048Y-69317235D01*
X238960093Y-69089148D01*
X238900834Y-68867992D01*
X238898511Y-68863010D01*
X238806399Y-68665473D01*
X238806396Y-68665468D01*
X238804073Y-68660486D01*
X238672748Y-68472935D01*
X238510850Y-68311037D01*
X238506342Y-68307880D01*
X238506339Y-68307878D01*
X238428161Y-68253137D01*
X238323299Y-68179712D01*
X238318317Y-68177389D01*
X238318312Y-68177386D01*
X238284093Y-68161430D01*
X238230808Y-68114513D01*
X238211347Y-68046236D01*
X238231889Y-67978276D01*
X238284093Y-67933040D01*
X238318312Y-67917084D01*
X238318317Y-67917081D01*
X238323299Y-67914758D01*
X238428161Y-67841333D01*
X238506339Y-67786592D01*
X238506342Y-67786590D01*
X238510850Y-67783433D01*
X238672748Y-67621535D01*
X238804073Y-67433984D01*
X238806396Y-67429002D01*
X238806399Y-67428997D01*
X238898511Y-67231460D01*
X238898511Y-67231459D01*
X238900834Y-67226478D01*
X238960093Y-67005322D01*
X238980048Y-66777235D01*
X238960093Y-66549148D01*
X238900834Y-66327992D01*
X238898511Y-66323010D01*
X238806399Y-66125473D01*
X238806396Y-66125468D01*
X238804073Y-66120486D01*
X238672748Y-65932935D01*
X238510850Y-65771037D01*
X238506342Y-65767880D01*
X238506339Y-65767878D01*
X238428161Y-65713137D01*
X238323299Y-65639712D01*
X238318317Y-65637389D01*
X238318312Y-65637386D01*
X238284093Y-65621430D01*
X238230808Y-65574513D01*
X238211347Y-65506236D01*
X238231889Y-65438276D01*
X238284093Y-65393040D01*
X238318312Y-65377084D01*
X238318317Y-65377081D01*
X238323299Y-65374758D01*
X238428161Y-65301333D01*
X238506339Y-65246592D01*
X238506342Y-65246590D01*
X238510850Y-65243433D01*
X238672748Y-65081535D01*
X238804073Y-64893984D01*
X238806396Y-64889002D01*
X238806399Y-64888997D01*
X238898511Y-64691460D01*
X238898511Y-64691459D01*
X238900834Y-64686478D01*
X238960093Y-64465322D01*
X238980048Y-64237235D01*
X238960093Y-64009148D01*
X238900834Y-63787992D01*
X238898511Y-63783010D01*
X238806399Y-63585473D01*
X238806396Y-63585468D01*
X238804073Y-63580486D01*
X238672748Y-63392935D01*
X238510850Y-63231037D01*
X238506342Y-63227880D01*
X238506339Y-63227878D01*
X238428161Y-63173137D01*
X238323299Y-63099712D01*
X238318317Y-63097389D01*
X238318312Y-63097386D01*
X238284093Y-63081430D01*
X238230808Y-63034513D01*
X238211347Y-62966236D01*
X238231889Y-62898276D01*
X238284093Y-62853040D01*
X238318312Y-62837084D01*
X238318317Y-62837081D01*
X238323299Y-62834758D01*
X238428161Y-62761333D01*
X238506339Y-62706592D01*
X238506342Y-62706590D01*
X238510850Y-62703433D01*
X238672748Y-62541535D01*
X238804073Y-62353984D01*
X238806396Y-62349002D01*
X238806399Y-62348997D01*
X238898511Y-62151460D01*
X238898511Y-62151459D01*
X238900834Y-62146478D01*
X238960093Y-61925322D01*
X238980048Y-61697235D01*
X238960093Y-61469148D01*
X238900834Y-61247992D01*
X238898511Y-61243010D01*
X238806399Y-61045473D01*
X238806396Y-61045468D01*
X238804073Y-61040486D01*
X238700697Y-60892850D01*
X238675907Y-60857446D01*
X238675905Y-60857443D01*
X238672748Y-60852935D01*
X238510850Y-60691037D01*
X238506342Y-60687880D01*
X238506339Y-60687878D01*
X238406563Y-60618014D01*
X238323299Y-60559712D01*
X238318317Y-60557389D01*
X238318312Y-60557386D01*
X238284093Y-60541430D01*
X238230808Y-60494513D01*
X238211347Y-60426236D01*
X238231889Y-60358276D01*
X238284093Y-60313040D01*
X238318312Y-60297084D01*
X238318317Y-60297081D01*
X238323299Y-60294758D01*
X238428161Y-60221333D01*
X238506339Y-60166592D01*
X238506342Y-60166590D01*
X238510850Y-60163433D01*
X238672748Y-60001535D01*
X238675911Y-59997019D01*
X238773697Y-59857365D01*
X238804073Y-59813984D01*
X238806396Y-59809002D01*
X238806399Y-59808997D01*
X238898511Y-59611460D01*
X238898511Y-59611459D01*
X238900834Y-59606478D01*
X238921526Y-59529257D01*
X238958669Y-59390637D01*
X238958669Y-59390635D01*
X238960093Y-59385322D01*
X238980048Y-59157235D01*
X238960093Y-58929148D01*
X238922722Y-58789678D01*
X238902257Y-58713302D01*
X238902256Y-58713300D01*
X238900834Y-58707992D01*
X238898511Y-58703010D01*
X238806399Y-58505473D01*
X238806396Y-58505468D01*
X238804073Y-58500486D01*
X238730648Y-58395624D01*
X238675907Y-58317446D01*
X238675905Y-58317443D01*
X238672748Y-58312935D01*
X238510850Y-58151037D01*
X238506342Y-58147880D01*
X238506339Y-58147878D01*
X238380470Y-58059744D01*
X238323299Y-58019712D01*
X238318317Y-58017389D01*
X238318312Y-58017386D01*
X238284093Y-58001430D01*
X238230808Y-57954513D01*
X238211347Y-57886236D01*
X238231889Y-57818276D01*
X238284093Y-57773040D01*
X238318312Y-57757084D01*
X238318317Y-57757081D01*
X238323299Y-57754758D01*
X238428161Y-57681333D01*
X238506339Y-57626592D01*
X238506342Y-57626590D01*
X238510850Y-57623433D01*
X238672748Y-57461535D01*
X238804073Y-57273984D01*
X238806396Y-57269002D01*
X238806399Y-57268997D01*
X238898511Y-57071460D01*
X238898511Y-57071459D01*
X238900834Y-57066478D01*
X238921526Y-56989257D01*
X238958669Y-56850637D01*
X238958669Y-56850635D01*
X238960093Y-56845322D01*
X238980048Y-56617235D01*
X238960093Y-56389148D01*
X238938971Y-56310321D01*
X238902257Y-56173302D01*
X238902256Y-56173300D01*
X238900834Y-56167992D01*
X238888514Y-56141571D01*
X238806399Y-55965473D01*
X238806396Y-55965468D01*
X238804073Y-55960486D01*
X238672748Y-55772935D01*
X238510850Y-55611037D01*
X238506342Y-55607880D01*
X238506339Y-55607878D01*
X238380470Y-55519744D01*
X238323299Y-55479712D01*
X238318317Y-55477389D01*
X238318312Y-55477386D01*
X238283501Y-55461154D01*
X238230216Y-55414237D01*
X238210755Y-55345960D01*
X238231297Y-55278000D01*
X238283501Y-55232764D01*
X238318061Y-55216649D01*
X238327556Y-55211166D01*
X238379598Y-55174726D01*
X238387974Y-55164247D01*
X238380906Y-55150801D01*
X237679362Y-54449257D01*
X237665418Y-54441643D01*
X237663585Y-54441774D01*
X237656970Y-54446025D01*
X236951473Y-55151522D01*
X236945043Y-55163297D01*
X236954339Y-55175312D01*
X237005544Y-55211166D01*
X237015039Y-55216649D01*
X237049599Y-55232764D01*
X237102884Y-55279681D01*
X237122345Y-55347958D01*
X237101803Y-55415918D01*
X237049599Y-55461154D01*
X237014788Y-55477386D01*
X237014783Y-55477389D01*
X237009801Y-55479712D01*
X236952630Y-55519744D01*
X236826761Y-55607878D01*
X236826758Y-55607880D01*
X236822250Y-55611037D01*
X236660352Y-55772935D01*
X236529027Y-55960486D01*
X236526704Y-55965468D01*
X236526701Y-55965473D01*
X236444586Y-56141571D01*
X236432266Y-56167992D01*
X236430844Y-56173300D01*
X236430843Y-56173302D01*
X236394129Y-56310321D01*
X236373007Y-56389148D01*
X236353052Y-56617235D01*
X236373007Y-56845322D01*
X236374431Y-56850635D01*
X236374431Y-56850637D01*
X236411575Y-56989257D01*
X236432266Y-57066478D01*
X236434589Y-57071459D01*
X236434589Y-57071460D01*
X236526701Y-57268997D01*
X236526704Y-57269002D01*
X236529027Y-57273984D01*
X236660352Y-57461535D01*
X236822250Y-57623433D01*
X236826758Y-57626590D01*
X236826761Y-57626592D01*
X236904939Y-57681333D01*
X237009801Y-57754758D01*
X237014783Y-57757081D01*
X237014788Y-57757084D01*
X237049007Y-57773040D01*
X237102292Y-57819957D01*
X237121753Y-57888234D01*
X237101211Y-57956194D01*
X237049007Y-58001430D01*
X237014788Y-58017386D01*
X237014783Y-58017389D01*
X237009801Y-58019712D01*
X236952630Y-58059744D01*
X236826761Y-58147878D01*
X236826758Y-58147880D01*
X236822250Y-58151037D01*
X236660352Y-58312935D01*
X236657195Y-58317443D01*
X236657193Y-58317446D01*
X236602452Y-58395624D01*
X236529027Y-58500486D01*
X236526704Y-58505468D01*
X236526701Y-58505473D01*
X236441591Y-58687994D01*
X236394674Y-58741279D01*
X236326397Y-58760740D01*
X236258437Y-58740198D01*
X236232235Y-58717328D01*
X236094565Y-58558678D01*
X236018097Y-58495978D01*
X235917134Y-58413193D01*
X235917128Y-58413189D01*
X235913006Y-58409809D01*
X235908370Y-58407170D01*
X235908367Y-58407168D01*
X235713603Y-58296302D01*
X235708960Y-58293659D01*
X235488261Y-58213549D01*
X235483012Y-58212600D01*
X235483009Y-58212599D01*
X235389618Y-58195711D01*
X235258450Y-58171992D01*
X235194977Y-58140189D01*
X235158774Y-58079116D01*
X235161336Y-58008166D01*
X235177156Y-57976457D01*
X235271336Y-57839933D01*
X235271341Y-57839924D01*
X235274151Y-57835851D01*
X235343646Y-57690801D01*
X235383105Y-57608443D01*
X235383105Y-57608442D01*
X235385247Y-57603972D01*
X235458700Y-57357570D01*
X235492705Y-57102709D01*
X235491821Y-57066533D01*
X235489153Y-56957442D01*
X235486420Y-56845667D01*
X235462023Y-56712741D01*
X235440897Y-56597638D01*
X235440896Y-56597635D01*
X235440004Y-56592774D01*
X235433894Y-56575422D01*
X235356241Y-56354922D01*
X235356241Y-56354921D01*
X235354597Y-56350254D01*
X235232304Y-56124081D01*
X235229299Y-56120151D01*
X235229296Y-56120146D01*
X235116746Y-55972940D01*
X235116740Y-55972932D01*
X235115237Y-55970967D01*
X235110308Y-55965473D01*
X234661711Y-55465511D01*
X233776752Y-54479222D01*
X233774753Y-54476938D01*
X233708394Y-54399240D01*
X233708388Y-54399234D01*
X233705181Y-54395479D01*
X233643590Y-54342876D01*
X233638530Y-54338312D01*
X233634553Y-54334525D01*
X233579933Y-54282511D01*
X233548761Y-54261008D01*
X233538484Y-54253107D01*
X233530879Y-54246612D01*
X233509666Y-54228494D01*
X233505453Y-54225912D01*
X233505443Y-54225905D01*
X233440610Y-54186175D01*
X233434898Y-54182459D01*
X233377991Y-54143202D01*
X233368289Y-54136509D01*
X233363833Y-54134374D01*
X233363826Y-54134370D01*
X233334133Y-54120144D01*
X233322753Y-54113953D01*
X233290437Y-54094150D01*
X233285866Y-54092257D01*
X233285859Y-54092253D01*
X233262821Y-54082710D01*
X236354033Y-54082710D01*
X236373022Y-54299754D01*
X236374925Y-54310547D01*
X236431314Y-54520996D01*
X236435060Y-54531288D01*
X236527136Y-54728746D01*
X236532619Y-54738241D01*
X236569059Y-54790283D01*
X236579538Y-54798659D01*
X236592984Y-54791591D01*
X237294528Y-54090047D01*
X237300906Y-54078367D01*
X238030958Y-54078367D01*
X238031089Y-54080200D01*
X238035340Y-54086815D01*
X238740837Y-54792312D01*
X238752612Y-54798742D01*
X238764627Y-54789446D01*
X238800481Y-54738241D01*
X238805964Y-54728746D01*
X238898040Y-54531288D01*
X238901786Y-54520996D01*
X238958175Y-54310547D01*
X238960078Y-54299754D01*
X238979067Y-54082710D01*
X238979067Y-54071760D01*
X238960078Y-53854716D01*
X238958175Y-53843923D01*
X238901786Y-53633474D01*
X238898040Y-53623182D01*
X238805964Y-53425724D01*
X238800481Y-53416229D01*
X238764041Y-53364187D01*
X238753562Y-53355811D01*
X238740116Y-53362879D01*
X238038572Y-54064423D01*
X238030958Y-54078367D01*
X237300906Y-54078367D01*
X237302142Y-54076103D01*
X237302011Y-54074270D01*
X237297760Y-54067655D01*
X236592263Y-53362158D01*
X236580488Y-53355728D01*
X236568473Y-53365024D01*
X236532619Y-53416229D01*
X236527136Y-53425724D01*
X236435060Y-53623182D01*
X236431314Y-53633474D01*
X236374925Y-53843923D01*
X236373022Y-53854716D01*
X236354033Y-54071760D01*
X236354033Y-54082710D01*
X233262821Y-54082710D01*
X233215627Y-54063161D01*
X233209405Y-54060385D01*
X233162836Y-54038074D01*
X233136410Y-54025413D01*
X233100120Y-54014595D01*
X233087897Y-54010255D01*
X233057458Y-53997647D01*
X233057456Y-53997646D01*
X233052890Y-53995755D01*
X232974154Y-53976852D01*
X232967575Y-53975083D01*
X232952725Y-53970656D01*
X232890008Y-53951960D01*
X232867272Y-53948926D01*
X232852469Y-53946951D01*
X232839721Y-53944577D01*
X232807692Y-53936888D01*
X232807689Y-53936888D01*
X232802876Y-53935732D01*
X232722151Y-53929379D01*
X232715401Y-53928663D01*
X232635147Y-53917955D01*
X232630193Y-53918076D01*
X232630190Y-53918076D01*
X232597278Y-53918881D01*
X232584312Y-53918531D01*
X232551480Y-53915947D01*
X232546550Y-53915559D01*
X232465821Y-53921913D01*
X232459040Y-53922261D01*
X232378105Y-53924240D01*
X232373237Y-53925133D01*
X232373232Y-53925134D01*
X232340847Y-53931078D01*
X232327987Y-53932760D01*
X232310937Y-53934102D01*
X232290224Y-53935732D01*
X232285415Y-53936887D01*
X232285412Y-53936887D01*
X232263840Y-53942066D01*
X232211497Y-53954632D01*
X232204853Y-53956038D01*
X232125211Y-53970656D01*
X232120546Y-53972299D01*
X232120538Y-53972301D01*
X232089477Y-53983240D01*
X232077039Y-53986913D01*
X232065726Y-53989629D01*
X232045024Y-53994599D01*
X232045021Y-53994600D01*
X232040210Y-53995755D01*
X232035639Y-53997648D01*
X232035637Y-53997649D01*
X231965427Y-54026731D01*
X231959068Y-54029166D01*
X231882692Y-54056063D01*
X231849361Y-54074085D01*
X231837659Y-54079654D01*
X231807241Y-54092253D01*
X231807233Y-54092257D01*
X231802663Y-54094150D01*
X231798443Y-54096736D01*
X231733637Y-54136449D01*
X231727743Y-54139845D01*
X231656519Y-54178356D01*
X231630619Y-54198158D01*
X231626416Y-54201372D01*
X231615721Y-54208708D01*
X231587658Y-54225905D01*
X231587653Y-54225909D01*
X231583434Y-54228494D01*
X231521870Y-54281074D01*
X231516608Y-54285328D01*
X231452262Y-54334525D01*
X231448845Y-54338113D01*
X231448843Y-54338115D01*
X231446415Y-54340665D01*
X231426131Y-54361966D01*
X231416724Y-54370877D01*
X231387919Y-54395479D01*
X231384707Y-54399240D01*
X231384704Y-54399243D01*
X231335351Y-54457029D01*
X231330786Y-54462089D01*
X231274949Y-54520725D01*
X231272138Y-54524800D01*
X231272133Y-54524806D01*
X231253431Y-54551915D01*
X231245529Y-54562195D01*
X231224151Y-54587227D01*
X231220934Y-54590994D01*
X231218350Y-54595211D01*
X231218344Y-54595219D01*
X231178642Y-54660006D01*
X231174931Y-54665711D01*
X231128947Y-54732369D01*
X231117312Y-54756652D01*
X231112572Y-54766546D01*
X231106374Y-54777937D01*
X231089179Y-54805997D01*
X231089176Y-54806004D01*
X231086590Y-54810223D01*
X231084697Y-54814793D01*
X231084695Y-54814797D01*
X231055621Y-54884989D01*
X231052845Y-54891209D01*
X231017851Y-54964248D01*
X231007023Y-55000571D01*
X231002683Y-55012791D01*
X230990091Y-55043192D01*
X230988195Y-55047770D01*
X230987040Y-55052582D01*
X230969304Y-55126458D01*
X230967535Y-55133037D01*
X230944398Y-55210650D01*
X230943744Y-55215551D01*
X230943743Y-55215556D01*
X230939387Y-55248208D01*
X230937012Y-55260960D01*
X230929328Y-55292964D01*
X230929326Y-55292979D01*
X230928172Y-55297784D01*
X230927784Y-55302714D01*
X230921824Y-55378450D01*
X230921105Y-55385228D01*
X230910393Y-55465511D01*
X230910514Y-55470466D01*
X230910514Y-55470468D01*
X230911319Y-55503403D01*
X230910969Y-55516365D01*
X230908387Y-55549178D01*
X230907999Y-55554110D01*
X230912480Y-55611037D01*
X230914349Y-55634788D01*
X230914698Y-55641584D01*
X230916678Y-55722553D01*
X230917573Y-55727428D01*
X230923519Y-55759828D01*
X230925201Y-55772687D01*
X230928172Y-55810436D01*
X230947065Y-55889134D01*
X230948471Y-55895778D01*
X230950015Y-55904187D01*
X230962199Y-55970574D01*
X230962201Y-55970581D01*
X230963094Y-55975447D01*
X230975685Y-56011199D01*
X230979355Y-56023628D01*
X230988195Y-56060450D01*
X231018559Y-56133755D01*
X231019160Y-56135206D01*
X231021597Y-56141571D01*
X231046855Y-56213294D01*
X231046858Y-56213301D01*
X231048501Y-56217966D01*
X231066529Y-56251307D01*
X231072097Y-56263008D01*
X231084693Y-56293419D01*
X231084697Y-56293427D01*
X231086590Y-56297997D01*
X231089176Y-56302216D01*
X231089179Y-56302223D01*
X231128876Y-56367003D01*
X231132278Y-56372907D01*
X231160567Y-56425226D01*
X231170794Y-56444139D01*
X231173797Y-56448066D01*
X231193814Y-56474247D01*
X231201148Y-56484937D01*
X231220934Y-56517226D01*
X231224150Y-56520991D01*
X231273486Y-56578757D01*
X231277770Y-56584056D01*
X231287861Y-56597254D01*
X231314385Y-56626815D01*
X231316410Y-56629072D01*
X231318430Y-56631380D01*
X231387919Y-56712741D01*
X231396808Y-56720332D01*
X231408753Y-56731989D01*
X231890591Y-57268997D01*
X232621565Y-58083669D01*
X232683587Y-58152793D01*
X232823165Y-58285709D01*
X233034809Y-58431711D01*
X233056614Y-58442158D01*
X233262225Y-58540669D01*
X233262228Y-58540670D01*
X233266688Y-58542807D01*
X233271430Y-58544221D01*
X233271431Y-58544221D01*
X233333474Y-58562716D01*
X233513091Y-58616260D01*
X233767951Y-58650265D01*
X233772905Y-58650144D01*
X233772907Y-58650144D01*
X233790412Y-58649716D01*
X233826257Y-58648839D01*
X233894846Y-58667169D01*
X233942637Y-58719672D01*
X233954456Y-58789678D01*
X233941654Y-58831905D01*
X233842483Y-59026961D01*
X233842481Y-59026967D01*
X233840063Y-59031722D01*
X233770439Y-59255950D01*
X233769738Y-59261239D01*
X233752642Y-59390226D01*
X233739589Y-59488703D01*
X233748398Y-59723326D01*
X233749493Y-59728544D01*
X233794984Y-59945350D01*
X233796612Y-59953111D01*
X233882852Y-60171487D01*
X233885621Y-60176050D01*
X233997219Y-60359957D01*
X234004654Y-60372210D01*
X234158535Y-60549542D01*
X234162667Y-60552930D01*
X234335966Y-60695027D01*
X234335972Y-60695031D01*
X234340094Y-60698411D01*
X234344730Y-60701050D01*
X234344733Y-60701052D01*
X234455958Y-60764365D01*
X234544140Y-60814561D01*
X234764839Y-60894671D01*
X234770088Y-60895620D01*
X234770091Y-60895621D01*
X234851165Y-60910281D01*
X234995880Y-60936450D01*
X235000019Y-60936645D01*
X235000026Y-60936646D01*
X235018990Y-60937540D01*
X235018999Y-60937540D01*
X235020479Y-60937610D01*
X235185500Y-60937610D01*
X235266849Y-60930707D01*
X235355187Y-60923212D01*
X235355191Y-60923211D01*
X235360498Y-60922761D01*
X235365653Y-60921423D01*
X235365659Y-60921422D01*
X235582585Y-60865119D01*
X235582584Y-60865119D01*
X235587756Y-60863777D01*
X235592622Y-60861585D01*
X235592625Y-60861584D01*
X235796967Y-60769534D01*
X235796970Y-60769533D01*
X235801828Y-60767344D01*
X235996591Y-60636222D01*
X236166477Y-60474159D01*
X236306628Y-60285789D01*
X236322124Y-60255312D01*
X236410619Y-60081254D01*
X236410619Y-60081253D01*
X236413037Y-60076498D01*
X236414619Y-60071403D01*
X236414622Y-60071396D01*
X236428957Y-60025230D01*
X236468260Y-59966105D01*
X236533289Y-59937615D01*
X236603398Y-59948805D01*
X236652502Y-59990325D01*
X236657189Y-59997019D01*
X236657193Y-59997024D01*
X236660352Y-60001535D01*
X236822250Y-60163433D01*
X236826758Y-60166590D01*
X236826761Y-60166592D01*
X236904939Y-60221333D01*
X237009801Y-60294758D01*
X237014783Y-60297081D01*
X237014788Y-60297084D01*
X237049007Y-60313040D01*
X237102292Y-60359957D01*
X237121753Y-60428234D01*
X237101211Y-60496194D01*
X237049007Y-60541430D01*
X237014788Y-60557386D01*
X237014783Y-60557389D01*
X237009801Y-60559712D01*
X236926537Y-60618014D01*
X236826761Y-60687878D01*
X236826758Y-60687880D01*
X236822250Y-60691037D01*
X236660352Y-60852935D01*
X236657195Y-60857443D01*
X236657193Y-60857446D01*
X236632403Y-60892850D01*
X236529027Y-61040486D01*
X236526704Y-61045468D01*
X236526701Y-61045473D01*
X236434589Y-61243010D01*
X236432266Y-61247992D01*
X236373007Y-61469148D01*
X236353052Y-61697235D01*
X236373007Y-61925322D01*
X236432266Y-62146478D01*
X236434589Y-62151459D01*
X236434589Y-62151460D01*
X236526701Y-62348997D01*
X236526704Y-62349002D01*
X236529027Y-62353984D01*
X236660352Y-62541535D01*
X236822250Y-62703433D01*
X236826758Y-62706590D01*
X236826761Y-62706592D01*
X236904939Y-62761333D01*
X237009801Y-62834758D01*
X237014783Y-62837081D01*
X237014788Y-62837084D01*
X237049007Y-62853040D01*
X237102292Y-62899957D01*
X237121753Y-62968234D01*
X237101211Y-63036194D01*
X237049007Y-63081430D01*
X237014788Y-63097386D01*
X237014783Y-63097389D01*
X237009801Y-63099712D01*
X236904939Y-63173137D01*
X236826761Y-63227878D01*
X236826758Y-63227880D01*
X236822250Y-63231037D01*
X236660352Y-63392935D01*
X236529027Y-63580486D01*
X236526704Y-63585468D01*
X236526701Y-63585473D01*
X236434589Y-63783010D01*
X236432266Y-63787992D01*
X236373007Y-64009148D01*
X236353052Y-64237235D01*
X236373007Y-64465322D01*
X236432266Y-64686478D01*
X236434589Y-64691459D01*
X236434589Y-64691460D01*
X236526701Y-64888997D01*
X236526704Y-64889002D01*
X236529027Y-64893984D01*
X236660352Y-65081535D01*
X236822250Y-65243433D01*
X236826758Y-65246590D01*
X236826761Y-65246592D01*
X236904939Y-65301333D01*
X237009801Y-65374758D01*
X237014783Y-65377081D01*
X237014788Y-65377084D01*
X237049007Y-65393040D01*
X237102292Y-65439957D01*
X237121753Y-65508234D01*
X237101211Y-65576194D01*
X237049007Y-65621430D01*
X237014788Y-65637386D01*
X237014783Y-65637389D01*
X237009801Y-65639712D01*
X236904939Y-65713137D01*
X236826761Y-65767878D01*
X236826758Y-65767880D01*
X236822250Y-65771037D01*
X236660352Y-65932935D01*
X236529027Y-66120486D01*
X236526704Y-66125468D01*
X236526701Y-66125473D01*
X236434589Y-66323010D01*
X236432266Y-66327992D01*
X236373007Y-66549148D01*
X236353052Y-66777235D01*
X236373007Y-67005322D01*
X236432266Y-67226478D01*
X236434589Y-67231459D01*
X236434589Y-67231460D01*
X236526701Y-67428997D01*
X236526704Y-67429002D01*
X236529027Y-67433984D01*
X236660352Y-67621535D01*
X236822250Y-67783433D01*
X236826758Y-67786590D01*
X236826761Y-67786592D01*
X236904939Y-67841333D01*
X237009801Y-67914758D01*
X237014783Y-67917081D01*
X237014788Y-67917084D01*
X237049007Y-67933040D01*
X237102292Y-67979957D01*
X237121753Y-68048234D01*
X237101211Y-68116194D01*
X237049007Y-68161430D01*
X237014788Y-68177386D01*
X237014783Y-68177389D01*
X237009801Y-68179712D01*
X236904939Y-68253137D01*
X236826761Y-68307878D01*
X236826758Y-68307880D01*
X236822250Y-68311037D01*
X236660352Y-68472935D01*
X236529027Y-68660486D01*
X236526704Y-68665468D01*
X236526701Y-68665473D01*
X236434589Y-68863010D01*
X236432266Y-68867992D01*
X236373007Y-69089148D01*
X236353052Y-69317235D01*
X236373007Y-69545322D01*
X236432266Y-69766478D01*
X236434589Y-69771459D01*
X236434589Y-69771460D01*
X236526701Y-69968997D01*
X236526704Y-69969002D01*
X236529027Y-69973984D01*
X236660352Y-70161535D01*
X236822250Y-70323433D01*
X236826758Y-70326590D01*
X236826761Y-70326592D01*
X236904939Y-70381333D01*
X237009801Y-70454758D01*
X237014783Y-70457081D01*
X237014788Y-70457084D01*
X237049007Y-70473040D01*
X237102292Y-70519957D01*
X237121753Y-70588234D01*
X237101211Y-70656194D01*
X237049007Y-70701430D01*
X237014788Y-70717386D01*
X237014783Y-70717389D01*
X237009801Y-70719712D01*
X236904939Y-70793137D01*
X236826761Y-70847878D01*
X236826758Y-70847880D01*
X236822250Y-70851037D01*
X236660352Y-71012935D01*
X236529027Y-71200486D01*
X236526704Y-71205468D01*
X236526701Y-71205473D01*
X236434589Y-71403010D01*
X236432266Y-71407992D01*
X236373007Y-71629148D01*
X236353052Y-71857235D01*
X236373007Y-72085322D01*
X236374431Y-72090635D01*
X236374431Y-72090637D01*
X236407266Y-72213176D01*
X236432266Y-72306478D01*
X236434589Y-72311459D01*
X236434589Y-72311460D01*
X236526701Y-72508997D01*
X236526704Y-72509002D01*
X236529027Y-72513984D01*
X236660352Y-72701535D01*
X236822250Y-72863433D01*
X236826758Y-72866590D01*
X236826761Y-72866592D01*
X236843402Y-72878244D01*
X237009801Y-72994758D01*
X237014783Y-72997081D01*
X237014788Y-72997084D01*
X237049007Y-73013040D01*
X237102292Y-73059957D01*
X237121753Y-73128234D01*
X237101211Y-73196194D01*
X237049007Y-73241430D01*
X237014788Y-73257386D01*
X237014783Y-73257389D01*
X237009801Y-73259712D01*
X236982978Y-73278494D01*
X236826761Y-73387878D01*
X236826758Y-73387880D01*
X236822250Y-73391037D01*
X236660352Y-73552935D01*
X236657195Y-73557443D01*
X236657193Y-73557446D01*
X236602452Y-73635624D01*
X236529027Y-73740486D01*
X236526704Y-73745468D01*
X236526701Y-73745473D01*
X236473193Y-73860223D01*
X236432266Y-73947992D01*
X236430844Y-73953300D01*
X236430843Y-73953302D01*
X236374431Y-74163833D01*
X236373007Y-74169148D01*
X236353052Y-74397235D01*
X236373007Y-74625322D01*
X236374431Y-74630635D01*
X236374431Y-74630637D01*
X236422446Y-74809828D01*
X236432266Y-74846478D01*
X236434589Y-74851459D01*
X236434589Y-74851460D01*
X236526701Y-75048997D01*
X236526704Y-75049002D01*
X236529027Y-75053984D01*
X236660352Y-75241535D01*
X236822250Y-75403433D01*
X236826758Y-75406590D01*
X236826761Y-75406592D01*
X236904939Y-75461333D01*
X237009801Y-75534758D01*
X237014783Y-75537081D01*
X237014788Y-75537084D01*
X237049007Y-75553040D01*
X237102292Y-75599957D01*
X237121753Y-75668234D01*
X237101211Y-75736194D01*
X237049007Y-75781430D01*
X237014788Y-75797386D01*
X237014783Y-75797389D01*
X237009801Y-75799712D01*
X236904939Y-75873137D01*
X236826761Y-75927878D01*
X236826758Y-75927880D01*
X236822250Y-75931037D01*
X236660352Y-76092935D01*
X236657195Y-76097443D01*
X236657193Y-76097446D01*
X236618498Y-76152709D01*
X236529027Y-76280486D01*
X236526704Y-76285468D01*
X236526701Y-76285473D01*
X236469767Y-76407570D01*
X236432266Y-76487992D01*
X236373007Y-76709148D01*
X236353052Y-76937235D01*
X236373007Y-77165322D01*
X236374431Y-77170635D01*
X236374431Y-77170637D01*
X236420793Y-77343659D01*
X236432266Y-77386478D01*
X236434589Y-77391459D01*
X236434589Y-77391460D01*
X236526701Y-77588997D01*
X236526704Y-77589002D01*
X236529027Y-77593984D01*
X236660352Y-77781535D01*
X236822250Y-77943433D01*
X236826758Y-77946590D01*
X236826761Y-77946592D01*
X236891185Y-77991702D01*
X237009801Y-78074758D01*
X237014783Y-78077081D01*
X237014788Y-78077084D01*
X237049007Y-78093040D01*
X237102292Y-78139957D01*
X237121753Y-78208234D01*
X237101211Y-78276194D01*
X237049007Y-78321430D01*
X237014788Y-78337386D01*
X237014783Y-78337389D01*
X237009801Y-78339712D01*
X236904939Y-78413137D01*
X236826761Y-78467878D01*
X236826758Y-78467880D01*
X236822250Y-78471037D01*
X236721674Y-78571613D01*
X236659362Y-78605639D01*
X236588547Y-78600574D01*
X236531711Y-78558027D01*
X236506668Y-78487246D01*
X236505144Y-78446672D01*
X236504702Y-78434894D01*
X236480895Y-78321430D01*
X236457585Y-78210336D01*
X236457584Y-78210333D01*
X236456488Y-78205109D01*
X236370248Y-77986733D01*
X236248446Y-77786010D01*
X236094565Y-77608678D01*
X236070562Y-77588997D01*
X235917134Y-77463193D01*
X235917128Y-77463189D01*
X235913006Y-77459809D01*
X235908370Y-77457170D01*
X235908367Y-77457168D01*
X235713603Y-77346302D01*
X235708960Y-77343659D01*
X235488261Y-77263549D01*
X235483012Y-77262600D01*
X235483009Y-77262599D01*
X235389618Y-77245711D01*
X235258450Y-77221992D01*
X235194977Y-77190189D01*
X235158774Y-77129116D01*
X235161336Y-77058166D01*
X235177156Y-77026457D01*
X235271336Y-76889933D01*
X235271341Y-76889924D01*
X235274151Y-76885851D01*
X235385247Y-76653972D01*
X235458700Y-76407570D01*
X235492705Y-76152709D01*
X235491821Y-76116533D01*
X235487285Y-75931037D01*
X235486420Y-75895667D01*
X235469388Y-75802869D01*
X235440897Y-75647638D01*
X235440896Y-75647635D01*
X235440004Y-75642774D01*
X235436041Y-75631519D01*
X235356241Y-75404922D01*
X235356241Y-75404921D01*
X235354597Y-75400254D01*
X235232304Y-75174081D01*
X235229299Y-75170151D01*
X235229296Y-75170146D01*
X235116746Y-75022940D01*
X235116740Y-75022932D01*
X235115237Y-75020967D01*
X235076195Y-74977454D01*
X234617434Y-74466165D01*
X233776752Y-73529222D01*
X233774753Y-73526938D01*
X233708394Y-73449240D01*
X233708388Y-73449234D01*
X233705181Y-73445479D01*
X233643590Y-73392876D01*
X233638530Y-73388312D01*
X233634553Y-73384525D01*
X233579933Y-73332511D01*
X233548761Y-73311008D01*
X233538484Y-73303107D01*
X233530879Y-73296612D01*
X233509666Y-73278494D01*
X233505453Y-73275912D01*
X233505443Y-73275905D01*
X233440610Y-73236175D01*
X233434898Y-73232459D01*
X233378136Y-73193302D01*
X233368289Y-73186509D01*
X233363833Y-73184374D01*
X233363826Y-73184370D01*
X233334133Y-73170144D01*
X233322753Y-73163953D01*
X233290437Y-73144150D01*
X233285866Y-73142257D01*
X233285859Y-73142253D01*
X233215627Y-73113161D01*
X233209405Y-73110385D01*
X233154312Y-73083990D01*
X233136410Y-73075413D01*
X233100120Y-73064595D01*
X233087897Y-73060255D01*
X233057458Y-73047647D01*
X233057456Y-73047646D01*
X233052890Y-73045755D01*
X232974154Y-73026852D01*
X232967575Y-73025083D01*
X232959716Y-73022740D01*
X232890008Y-73001960D01*
X232867272Y-72998926D01*
X232852469Y-72996951D01*
X232839721Y-72994577D01*
X232807692Y-72986888D01*
X232807689Y-72986888D01*
X232802876Y-72985732D01*
X232722151Y-72979379D01*
X232715401Y-72978663D01*
X232635147Y-72967955D01*
X232630193Y-72968076D01*
X232630190Y-72968076D01*
X232597278Y-72968881D01*
X232584312Y-72968531D01*
X232551480Y-72965947D01*
X232546550Y-72965559D01*
X232465821Y-72971913D01*
X232459040Y-72972261D01*
X232378105Y-72974240D01*
X232373237Y-72975133D01*
X232373232Y-72975134D01*
X232340847Y-72981078D01*
X232327987Y-72982760D01*
X232310937Y-72984102D01*
X232290224Y-72985732D01*
X232285415Y-72986887D01*
X232285412Y-72986887D01*
X232265777Y-72991601D01*
X232211497Y-73004632D01*
X232204853Y-73006038D01*
X232125211Y-73020656D01*
X232120546Y-73022299D01*
X232120538Y-73022301D01*
X232089477Y-73033240D01*
X232077039Y-73036913D01*
X232065726Y-73039629D01*
X232045024Y-73044599D01*
X232045021Y-73044600D01*
X232040210Y-73045755D01*
X232035639Y-73047648D01*
X232035637Y-73047649D01*
X231965427Y-73076731D01*
X231959068Y-73079166D01*
X231882692Y-73106063D01*
X231849361Y-73124085D01*
X231837659Y-73129654D01*
X231807241Y-73142253D01*
X231807233Y-73142257D01*
X231802663Y-73144150D01*
X231798443Y-73146736D01*
X231733637Y-73186449D01*
X231727743Y-73189845D01*
X231656519Y-73228356D01*
X231630619Y-73248158D01*
X231626416Y-73251372D01*
X231615721Y-73258708D01*
X231587658Y-73275905D01*
X231587653Y-73275909D01*
X231583434Y-73278494D01*
X231521870Y-73331074D01*
X231516608Y-73335328D01*
X231452262Y-73384525D01*
X231448845Y-73388113D01*
X231448843Y-73388115D01*
X231446415Y-73390665D01*
X231426131Y-73411966D01*
X231416724Y-73420877D01*
X231387919Y-73445479D01*
X231384707Y-73449240D01*
X231384704Y-73449243D01*
X231335351Y-73507029D01*
X231330786Y-73512089D01*
X231274949Y-73570725D01*
X231272138Y-73574800D01*
X231272133Y-73574806D01*
X231253431Y-73601915D01*
X231245529Y-73612195D01*
X231224151Y-73637227D01*
X231220934Y-73640994D01*
X231218350Y-73645211D01*
X231218344Y-73645219D01*
X231178642Y-73710006D01*
X231174931Y-73715711D01*
X231128947Y-73782369D01*
X231126811Y-73786828D01*
X231112572Y-73816546D01*
X231106374Y-73827937D01*
X231089179Y-73855997D01*
X231089176Y-73856004D01*
X231086590Y-73860223D01*
X231084697Y-73864793D01*
X231084695Y-73864797D01*
X231055621Y-73934989D01*
X231052845Y-73941209D01*
X231017851Y-74014248D01*
X231007555Y-74048785D01*
X231007023Y-74050571D01*
X231002683Y-74062791D01*
X230990091Y-74093192D01*
X230988195Y-74097770D01*
X230987040Y-74102582D01*
X230969304Y-74176458D01*
X230967535Y-74183037D01*
X230944398Y-74260650D01*
X230943744Y-74265551D01*
X230943743Y-74265556D01*
X230939387Y-74298208D01*
X230937012Y-74310960D01*
X230929328Y-74342964D01*
X230929326Y-74342979D01*
X230928172Y-74347784D01*
X230927784Y-74352714D01*
X230921824Y-74428450D01*
X230921105Y-74435228D01*
X230910393Y-74515511D01*
X230910514Y-74520466D01*
X230910514Y-74520468D01*
X230911319Y-74553403D01*
X230910969Y-74566365D01*
X230907999Y-74604110D01*
X229101259Y-74604110D01*
X229133990Y-74506598D01*
X229136384Y-74497032D01*
X229177408Y-74253318D01*
X229178278Y-74243485D01*
X229180071Y-74058257D01*
X229179924Y-74053287D01*
X229174403Y-73973229D01*
X229168889Y-73958330D01*
X229167420Y-73957225D01*
X229159638Y-73956086D01*
X227815499Y-74048785D01*
X227800600Y-74054299D01*
X227799495Y-74055768D01*
X227798356Y-74063550D01*
X223691798Y-74063550D01*
X223662257Y-73953302D01*
X223662256Y-73953300D01*
X223660834Y-73947992D01*
X223619907Y-73860223D01*
X223566399Y-73745473D01*
X223566396Y-73745468D01*
X223564073Y-73740486D01*
X223490648Y-73635624D01*
X223435907Y-73557446D01*
X223435905Y-73557443D01*
X223432748Y-73552935D01*
X223408854Y-73529041D01*
X225868888Y-73529041D01*
X225877925Y-73643878D01*
X225878014Y-73645091D01*
X225878697Y-73654990D01*
X225884211Y-73669889D01*
X225885681Y-73670995D01*
X225893460Y-73672134D01*
X227186843Y-73582935D01*
X227197572Y-73578964D01*
X227192049Y-73568819D01*
X227157509Y-73534279D01*
X227860171Y-73534279D01*
X227865193Y-73536152D01*
X229120561Y-73449575D01*
X229135460Y-73444061D01*
X229136370Y-73442850D01*
X229137549Y-73434518D01*
X229135179Y-73404403D01*
X229135090Y-73403186D01*
X229131437Y-73350224D01*
X229130902Y-73345289D01*
X229130744Y-73344229D01*
X229129763Y-73335593D01*
X229124822Y-73272800D01*
X229123277Y-73263046D01*
X229112558Y-73218398D01*
X229110443Y-73207491D01*
X229103695Y-73162048D01*
X229101487Y-73152444D01*
X229082603Y-73092350D01*
X229080289Y-73083990D01*
X229065581Y-73022729D01*
X229062538Y-73013362D01*
X229044958Y-72970921D01*
X229041162Y-72960475D01*
X229027394Y-72916663D01*
X229023705Y-72907508D01*
X228995657Y-72851117D01*
X228992063Y-72843221D01*
X228967956Y-72785022D01*
X228963481Y-72776238D01*
X228939479Y-72737071D01*
X228934097Y-72727349D01*
X228913644Y-72686228D01*
X228908572Y-72677768D01*
X228872037Y-72626444D01*
X228867253Y-72619209D01*
X228837208Y-72570181D01*
X228829149Y-72564920D01*
X228818943Y-72570927D01*
X227865680Y-73524190D01*
X227860171Y-73534279D01*
X227157509Y-73534279D01*
X226195616Y-72572386D01*
X226182079Y-72564994D01*
X226176812Y-72568679D01*
X226154757Y-72604669D01*
X226148538Y-72613879D01*
X226121185Y-72650770D01*
X226115944Y-72659139D01*
X226086809Y-72714977D01*
X226082534Y-72722525D01*
X226049624Y-72776230D01*
X226045144Y-72785023D01*
X226027569Y-72827452D01*
X226022868Y-72837521D01*
X226001620Y-72878244D01*
X225997753Y-72887329D01*
X225977713Y-72947032D01*
X225974672Y-72955155D01*
X225950566Y-73013353D01*
X225947516Y-73022740D01*
X225936796Y-73067391D01*
X225933729Y-73078070D01*
X225919110Y-73121624D01*
X225916716Y-73131185D01*
X225906260Y-73193302D01*
X225904527Y-73201799D01*
X225889821Y-73263057D01*
X225888279Y-73272788D01*
X225884674Y-73318596D01*
X225883314Y-73329624D01*
X225875693Y-73374900D01*
X225874823Y-73384736D01*
X225874213Y-73447706D01*
X225873831Y-73456371D01*
X225868888Y-73519180D01*
X225868888Y-73529041D01*
X223408854Y-73529041D01*
X223270850Y-73391037D01*
X223266342Y-73387880D01*
X223266339Y-73387878D01*
X223110122Y-73278494D01*
X223083299Y-73259712D01*
X223078317Y-73257389D01*
X223078312Y-73257386D01*
X223044093Y-73241430D01*
X222990808Y-73194513D01*
X222971347Y-73126236D01*
X222991889Y-73058276D01*
X223044093Y-73013040D01*
X223078312Y-72997084D01*
X223078317Y-72997081D01*
X223083299Y-72994758D01*
X223249698Y-72878244D01*
X223266339Y-72866592D01*
X223266342Y-72866590D01*
X223270850Y-72863433D01*
X223432748Y-72701535D01*
X223564073Y-72513984D01*
X223566396Y-72509002D01*
X223566399Y-72508997D01*
X223658511Y-72311460D01*
X223658511Y-72311459D01*
X223660834Y-72306478D01*
X223685835Y-72213176D01*
X223688961Y-72201511D01*
X226547360Y-72201511D01*
X226553367Y-72211717D01*
X227193667Y-72852017D01*
X227203756Y-72857526D01*
X227205629Y-72852504D01*
X227143073Y-71945435D01*
X227137719Y-71930970D01*
X227131330Y-71930290D01*
X227074790Y-71948057D01*
X227066430Y-71950371D01*
X227005169Y-71965079D01*
X226995802Y-71968122D01*
X226953361Y-71985702D01*
X226942915Y-71989498D01*
X226899103Y-72003266D01*
X226889948Y-72006955D01*
X226833557Y-72035003D01*
X226825661Y-72038597D01*
X226767462Y-72062704D01*
X226758678Y-72067179D01*
X226719511Y-72091181D01*
X226709789Y-72096563D01*
X226668668Y-72117016D01*
X226660208Y-72122088D01*
X226608884Y-72158623D01*
X226601649Y-72163407D01*
X226552621Y-72193452D01*
X226547360Y-72201511D01*
X223688961Y-72201511D01*
X223718669Y-72090637D01*
X223718669Y-72090635D01*
X223720093Y-72085322D01*
X223735569Y-71908429D01*
X227649727Y-71908429D01*
X227720305Y-72931823D01*
X227724276Y-72942552D01*
X227734421Y-72937029D01*
X228458274Y-72213176D01*
X228465666Y-72199639D01*
X228461981Y-72194372D01*
X228425991Y-72172317D01*
X228416781Y-72166098D01*
X228379890Y-72138745D01*
X228371521Y-72133504D01*
X228315683Y-72104369D01*
X228308135Y-72100094D01*
X228254430Y-72067184D01*
X228245637Y-72062704D01*
X228203208Y-72045129D01*
X228193139Y-72040428D01*
X228152416Y-72019180D01*
X228143331Y-72015313D01*
X228083628Y-71995273D01*
X228075505Y-71992232D01*
X228017307Y-71968126D01*
X228007920Y-71965076D01*
X227963269Y-71954356D01*
X227952590Y-71951289D01*
X227909036Y-71936670D01*
X227899475Y-71934276D01*
X227837358Y-71923820D01*
X227828861Y-71922087D01*
X227767603Y-71907381D01*
X227757872Y-71905839D01*
X227712064Y-71902234D01*
X227701036Y-71900874D01*
X227661165Y-71894163D01*
X227651902Y-71896785D01*
X227649727Y-71908429D01*
X223735569Y-71908429D01*
X223740048Y-71857235D01*
X223720093Y-71629148D01*
X223660834Y-71407992D01*
X223658511Y-71403010D01*
X223566399Y-71205473D01*
X223566396Y-71205468D01*
X223564073Y-71200486D01*
X223432748Y-71012935D01*
X223270850Y-70851037D01*
X223266342Y-70847880D01*
X223266339Y-70847878D01*
X223188161Y-70793137D01*
X223083299Y-70719712D01*
X223078317Y-70717389D01*
X223078312Y-70717386D01*
X223044093Y-70701430D01*
X222990808Y-70654513D01*
X222971347Y-70586236D01*
X222991889Y-70518276D01*
X223044093Y-70473040D01*
X223078312Y-70457084D01*
X223078317Y-70457081D01*
X223083299Y-70454758D01*
X223188161Y-70381333D01*
X223266339Y-70326592D01*
X223266342Y-70326590D01*
X223270850Y-70323433D01*
X223432748Y-70161535D01*
X223564073Y-69973984D01*
X223566396Y-69969002D01*
X223566399Y-69968997D01*
X223658511Y-69771460D01*
X223658511Y-69771459D01*
X223660834Y-69766478D01*
X223720093Y-69545322D01*
X223740048Y-69317235D01*
X223720093Y-69089148D01*
X223660834Y-68867992D01*
X223658511Y-68863010D01*
X223566399Y-68665473D01*
X223566396Y-68665468D01*
X223564073Y-68660486D01*
X223432748Y-68472935D01*
X223270850Y-68311037D01*
X223266342Y-68307880D01*
X223266339Y-68307878D01*
X223188161Y-68253137D01*
X223083299Y-68179712D01*
X223078317Y-68177389D01*
X223078312Y-68177386D01*
X223044093Y-68161430D01*
X222990808Y-68114513D01*
X222971347Y-68046236D01*
X222991889Y-67978276D01*
X223044093Y-67933040D01*
X223078312Y-67917084D01*
X223078317Y-67917081D01*
X223083299Y-67914758D01*
X223188161Y-67841333D01*
X223266339Y-67786592D01*
X223266342Y-67786590D01*
X223270850Y-67783433D01*
X223432748Y-67621535D01*
X223564073Y-67433984D01*
X223566396Y-67429002D01*
X223566399Y-67428997D01*
X223658511Y-67231460D01*
X223658511Y-67231459D01*
X223660834Y-67226478D01*
X223720093Y-67005322D01*
X223740048Y-66777235D01*
X223720093Y-66549148D01*
X223660834Y-66327992D01*
X223658511Y-66323010D01*
X223566399Y-66125473D01*
X223566396Y-66125468D01*
X223564073Y-66120486D01*
X223432748Y-65932935D01*
X223270850Y-65771037D01*
X223266342Y-65767880D01*
X223266339Y-65767878D01*
X223188161Y-65713137D01*
X223083299Y-65639712D01*
X223078317Y-65637389D01*
X223078312Y-65637386D01*
X223044093Y-65621430D01*
X222990808Y-65574513D01*
X222971347Y-65506236D01*
X222991889Y-65438276D01*
X223044093Y-65393040D01*
X223078312Y-65377084D01*
X223078317Y-65377081D01*
X223083299Y-65374758D01*
X223188161Y-65301333D01*
X223266339Y-65246592D01*
X223266342Y-65246590D01*
X223270850Y-65243433D01*
X223432748Y-65081535D01*
X223564073Y-64893984D01*
X223566396Y-64889002D01*
X223566399Y-64888997D01*
X223658511Y-64691460D01*
X223658511Y-64691459D01*
X223660834Y-64686478D01*
X223720093Y-64465322D01*
X223740048Y-64237235D01*
X223720093Y-64009148D01*
X223660834Y-63787992D01*
X223658511Y-63783010D01*
X223566399Y-63585473D01*
X223566396Y-63585468D01*
X223564073Y-63580486D01*
X223432748Y-63392935D01*
X223270850Y-63231037D01*
X223266342Y-63227880D01*
X223266339Y-63227878D01*
X223188161Y-63173137D01*
X223083299Y-63099712D01*
X223078317Y-63097389D01*
X223078312Y-63097386D01*
X223044093Y-63081430D01*
X222990808Y-63034513D01*
X222971347Y-62966236D01*
X222991889Y-62898276D01*
X223044093Y-62853040D01*
X223078312Y-62837084D01*
X223078317Y-62837081D01*
X223083299Y-62834758D01*
X223188161Y-62761333D01*
X223266339Y-62706592D01*
X223266342Y-62706590D01*
X223270850Y-62703433D01*
X223432748Y-62541535D01*
X223564073Y-62353984D01*
X223566396Y-62349002D01*
X223566399Y-62348997D01*
X223658511Y-62151460D01*
X223658511Y-62151459D01*
X223660834Y-62146478D01*
X223720093Y-61925322D01*
X223740048Y-61697235D01*
X223720093Y-61469148D01*
X223660834Y-61247992D01*
X223658511Y-61243010D01*
X223566399Y-61045473D01*
X223566396Y-61045468D01*
X223564073Y-61040486D01*
X223460697Y-60892850D01*
X223435907Y-60857446D01*
X223435905Y-60857443D01*
X223432748Y-60852935D01*
X223270850Y-60691037D01*
X223266342Y-60687880D01*
X223266339Y-60687878D01*
X223166563Y-60618014D01*
X223083299Y-60559712D01*
X223078317Y-60557389D01*
X223078312Y-60557386D01*
X223043501Y-60541154D01*
X222990216Y-60494237D01*
X222970755Y-60425960D01*
X222991297Y-60358000D01*
X223043501Y-60312764D01*
X223078061Y-60296649D01*
X223087556Y-60291166D01*
X223139598Y-60254726D01*
X223147974Y-60244247D01*
X223140906Y-60230801D01*
X222439362Y-59529257D01*
X222425418Y-59521643D01*
X222423585Y-59521774D01*
X222416970Y-59526025D01*
X221711473Y-60231522D01*
X221705043Y-60243297D01*
X221714339Y-60255312D01*
X221765544Y-60291166D01*
X221775039Y-60296649D01*
X221809599Y-60312764D01*
X221862884Y-60359681D01*
X221882345Y-60427958D01*
X221861803Y-60495918D01*
X221809599Y-60541154D01*
X221774788Y-60557386D01*
X221774783Y-60557389D01*
X221769801Y-60559712D01*
X221686537Y-60618014D01*
X221586761Y-60687878D01*
X221586758Y-60687880D01*
X221582250Y-60691037D01*
X221420352Y-60852935D01*
X221417195Y-60857443D01*
X221417193Y-60857446D01*
X221392403Y-60892850D01*
X221289027Y-61040486D01*
X221286704Y-61045468D01*
X221286701Y-61045473D01*
X221194589Y-61243010D01*
X221192266Y-61247992D01*
X221133007Y-61469148D01*
X221113052Y-61697235D01*
X221133007Y-61925322D01*
X221192266Y-62146478D01*
X221194589Y-62151459D01*
X221194589Y-62151460D01*
X221286701Y-62348997D01*
X221286704Y-62349002D01*
X221289027Y-62353984D01*
X221420352Y-62541535D01*
X221582250Y-62703433D01*
X221586758Y-62706590D01*
X221586761Y-62706592D01*
X221664939Y-62761333D01*
X221769801Y-62834758D01*
X221774783Y-62837081D01*
X221774788Y-62837084D01*
X221809007Y-62853040D01*
X221862292Y-62899957D01*
X221881753Y-62968234D01*
X221861211Y-63036194D01*
X221809007Y-63081430D01*
X221774788Y-63097386D01*
X221774783Y-63097389D01*
X221769801Y-63099712D01*
X221664939Y-63173137D01*
X221586761Y-63227878D01*
X221586758Y-63227880D01*
X221582250Y-63231037D01*
X221420352Y-63392935D01*
X221289027Y-63580486D01*
X221286704Y-63585468D01*
X221286701Y-63585473D01*
X221194589Y-63783010D01*
X221192266Y-63787992D01*
X221133007Y-64009148D01*
X221113052Y-64237235D01*
X221133007Y-64465322D01*
X221192266Y-64686478D01*
X221194589Y-64691459D01*
X221194589Y-64691460D01*
X221286701Y-64888997D01*
X221286704Y-64889002D01*
X221289027Y-64893984D01*
X221420352Y-65081535D01*
X221582250Y-65243433D01*
X221586758Y-65246590D01*
X221586761Y-65246592D01*
X221664939Y-65301333D01*
X221769801Y-65374758D01*
X221774783Y-65377081D01*
X221774788Y-65377084D01*
X221809007Y-65393040D01*
X221862292Y-65439957D01*
X221881753Y-65508234D01*
X221861211Y-65576194D01*
X221809007Y-65621430D01*
X221774788Y-65637386D01*
X221774783Y-65637389D01*
X221769801Y-65639712D01*
X221664939Y-65713137D01*
X221586761Y-65767878D01*
X221586758Y-65767880D01*
X221582250Y-65771037D01*
X221420352Y-65932935D01*
X221289027Y-66120486D01*
X221286704Y-66125468D01*
X221286701Y-66125473D01*
X221194589Y-66323010D01*
X221192266Y-66327992D01*
X221133007Y-66549148D01*
X221113052Y-66777235D01*
X221133007Y-67005322D01*
X221192266Y-67226478D01*
X221194589Y-67231459D01*
X221194589Y-67231460D01*
X221286701Y-67428997D01*
X221286704Y-67429002D01*
X221289027Y-67433984D01*
X221420352Y-67621535D01*
X221582250Y-67783433D01*
X221586758Y-67786590D01*
X221586761Y-67786592D01*
X221664939Y-67841333D01*
X221769801Y-67914758D01*
X221774783Y-67917081D01*
X221774788Y-67917084D01*
X221809007Y-67933040D01*
X221862292Y-67979957D01*
X221881753Y-68048234D01*
X221861211Y-68116194D01*
X221809007Y-68161430D01*
X221774788Y-68177386D01*
X221774783Y-68177389D01*
X221769801Y-68179712D01*
X221664939Y-68253137D01*
X221586761Y-68307878D01*
X221586758Y-68307880D01*
X221582250Y-68311037D01*
X221420352Y-68472935D01*
X221289027Y-68660486D01*
X221286704Y-68665468D01*
X221286701Y-68665473D01*
X221194589Y-68863010D01*
X221192266Y-68867992D01*
X221133007Y-69089148D01*
X221113052Y-69317235D01*
X221133007Y-69545322D01*
X221192266Y-69766478D01*
X221194589Y-69771459D01*
X221194589Y-69771460D01*
X221286701Y-69968997D01*
X221286704Y-69969002D01*
X221289027Y-69973984D01*
X221420352Y-70161535D01*
X221582250Y-70323433D01*
X221586758Y-70326590D01*
X221586761Y-70326592D01*
X221664939Y-70381333D01*
X221769801Y-70454758D01*
X221774783Y-70457081D01*
X221774788Y-70457084D01*
X221809007Y-70473040D01*
X221862292Y-70519957D01*
X221881753Y-70588234D01*
X221861211Y-70656194D01*
X221809007Y-70701430D01*
X221774788Y-70717386D01*
X221774783Y-70717389D01*
X221769801Y-70719712D01*
X221664939Y-70793137D01*
X221586761Y-70847878D01*
X221586758Y-70847880D01*
X221582250Y-70851037D01*
X221420352Y-71012935D01*
X221289027Y-71200486D01*
X221286704Y-71205468D01*
X221286701Y-71205473D01*
X221194589Y-71403010D01*
X221192266Y-71407992D01*
X221133007Y-71629148D01*
X221113052Y-71857235D01*
X221133007Y-72085322D01*
X221134431Y-72090635D01*
X221134431Y-72090637D01*
X221167266Y-72213176D01*
X221192266Y-72306478D01*
X221194589Y-72311459D01*
X221194589Y-72311460D01*
X221286701Y-72508997D01*
X221286704Y-72509002D01*
X221289027Y-72513984D01*
X221420352Y-72701535D01*
X221582250Y-72863433D01*
X221586758Y-72866590D01*
X221586761Y-72866592D01*
X221603402Y-72878244D01*
X221769801Y-72994758D01*
X221774783Y-72997081D01*
X221774788Y-72997084D01*
X221809007Y-73013040D01*
X221862292Y-73059957D01*
X221881753Y-73128234D01*
X221861211Y-73196194D01*
X221809007Y-73241430D01*
X221774788Y-73257386D01*
X221774783Y-73257389D01*
X221769801Y-73259712D01*
X221742978Y-73278494D01*
X221586761Y-73387878D01*
X221586758Y-73387880D01*
X221582250Y-73391037D01*
X221420352Y-73552935D01*
X221417195Y-73557443D01*
X221417193Y-73557446D01*
X221362452Y-73635624D01*
X221289027Y-73740486D01*
X221286704Y-73745468D01*
X221286701Y-73745473D01*
X221233193Y-73860223D01*
X221192266Y-73947992D01*
X221190844Y-73953300D01*
X221190843Y-73953302D01*
X221134431Y-74163833D01*
X221133007Y-74169148D01*
X221113052Y-74397235D01*
X221133007Y-74625322D01*
X221134431Y-74630635D01*
X221134431Y-74630637D01*
X221182446Y-74809828D01*
X221192266Y-74846478D01*
X221194589Y-74851459D01*
X221194589Y-74851460D01*
X221286701Y-75048997D01*
X221286704Y-75049002D01*
X221289027Y-75053984D01*
X221420352Y-75241535D01*
X221582250Y-75403433D01*
X221586758Y-75406590D01*
X221586761Y-75406592D01*
X221664939Y-75461333D01*
X221769801Y-75534758D01*
X221774783Y-75537081D01*
X221774788Y-75537084D01*
X221809007Y-75553040D01*
X221862292Y-75599957D01*
X221881753Y-75668234D01*
X221861211Y-75736194D01*
X221809007Y-75781430D01*
X221774788Y-75797386D01*
X221774783Y-75797389D01*
X221769801Y-75799712D01*
X221664939Y-75873137D01*
X221586761Y-75927878D01*
X221586758Y-75927880D01*
X221582250Y-75931037D01*
X221420352Y-76092935D01*
X221417195Y-76097443D01*
X221417193Y-76097446D01*
X221378498Y-76152709D01*
X221289027Y-76280486D01*
X221286704Y-76285468D01*
X221286701Y-76285473D01*
X221229767Y-76407570D01*
X221192266Y-76487992D01*
X221133007Y-76709148D01*
X221113052Y-76937235D01*
X221133007Y-77165322D01*
X221134431Y-77170635D01*
X221134431Y-77170637D01*
X221180793Y-77343659D01*
X221192266Y-77386478D01*
X221194589Y-77391459D01*
X221194589Y-77391460D01*
X221286701Y-77588997D01*
X221286704Y-77589002D01*
X221289027Y-77593984D01*
X221420352Y-77781535D01*
X221582250Y-77943433D01*
X221586758Y-77946590D01*
X221586761Y-77946592D01*
X221651185Y-77991702D01*
X221769801Y-78074758D01*
X221774783Y-78077081D01*
X221774788Y-78077084D01*
X221809007Y-78093040D01*
X221862292Y-78139957D01*
X221881753Y-78208234D01*
X221861211Y-78276194D01*
X221809007Y-78321430D01*
X221774788Y-78337386D01*
X221774783Y-78337389D01*
X221769801Y-78339712D01*
X221664939Y-78413137D01*
X221586761Y-78467878D01*
X221586758Y-78467880D01*
X221582250Y-78471037D01*
X221420352Y-78632935D01*
X221289027Y-78820486D01*
X221286704Y-78825468D01*
X221286701Y-78825473D01*
X221194589Y-79023010D01*
X221192266Y-79027992D01*
X221190844Y-79033300D01*
X221190843Y-79033302D01*
X221141750Y-79216518D01*
X221133007Y-79249148D01*
X221113052Y-79477235D01*
X220508500Y-79477235D01*
X220508500Y-59162710D01*
X221114033Y-59162710D01*
X221133022Y-59379754D01*
X221134925Y-59390547D01*
X221191314Y-59600996D01*
X221195060Y-59611288D01*
X221287136Y-59808746D01*
X221292619Y-59818241D01*
X221329059Y-59870283D01*
X221339538Y-59878659D01*
X221352984Y-59871591D01*
X222054528Y-59170047D01*
X222060906Y-59158367D01*
X222790958Y-59158367D01*
X222791089Y-59160200D01*
X222795340Y-59166815D01*
X223500837Y-59872312D01*
X223516403Y-59880812D01*
X223582310Y-59895149D01*
X223632513Y-59945350D01*
X223639116Y-59959452D01*
X223722852Y-60171487D01*
X223725621Y-60176050D01*
X223837219Y-60359957D01*
X223844654Y-60372210D01*
X223998535Y-60549542D01*
X224002667Y-60552930D01*
X224175966Y-60695027D01*
X224175972Y-60695031D01*
X224180094Y-60698411D01*
X224184730Y-60701050D01*
X224184733Y-60701052D01*
X224295958Y-60764365D01*
X224384140Y-60814561D01*
X224604839Y-60894671D01*
X224610088Y-60895620D01*
X224610091Y-60895621D01*
X224691165Y-60910281D01*
X224835880Y-60936450D01*
X224840019Y-60936645D01*
X224840026Y-60936646D01*
X224858990Y-60937540D01*
X224858999Y-60937540D01*
X224860479Y-60937610D01*
X225025500Y-60937610D01*
X225106849Y-60930707D01*
X225195187Y-60923212D01*
X225195191Y-60923211D01*
X225200498Y-60922761D01*
X225205653Y-60921423D01*
X225205659Y-60921422D01*
X225422585Y-60865119D01*
X225422584Y-60865119D01*
X225427756Y-60863777D01*
X225432622Y-60861585D01*
X225432625Y-60861584D01*
X225636967Y-60769534D01*
X225636970Y-60769533D01*
X225641828Y-60767344D01*
X225836591Y-60636222D01*
X226006477Y-60474159D01*
X226146628Y-60285789D01*
X226162124Y-60255312D01*
X226250619Y-60081254D01*
X226250619Y-60081253D01*
X226253037Y-60076498D01*
X226322661Y-59852270D01*
X226339752Y-59723326D01*
X226341313Y-59711548D01*
X227544150Y-59711548D01*
X227583614Y-60023940D01*
X227661920Y-60328923D01*
X227777834Y-60621687D01*
X227779736Y-60625146D01*
X227779737Y-60625149D01*
X227911662Y-60865119D01*
X227929526Y-60897614D01*
X228114605Y-61152354D01*
X228330152Y-61381888D01*
X228572768Y-61582597D01*
X228838626Y-61751316D01*
X228842205Y-61753000D01*
X228842212Y-61753004D01*
X229119944Y-61883694D01*
X229119948Y-61883696D01*
X229123534Y-61885383D01*
X229422998Y-61982685D01*
X229732296Y-62041687D01*
X229825850Y-62047573D01*
X229965908Y-62056385D01*
X229965924Y-62056386D01*
X229967903Y-62056510D01*
X230125197Y-62056510D01*
X230127176Y-62056386D01*
X230127192Y-62056385D01*
X230267250Y-62047573D01*
X230360804Y-62041687D01*
X230670102Y-61982685D01*
X230969566Y-61885383D01*
X230973152Y-61883696D01*
X230973156Y-61883694D01*
X231250888Y-61753004D01*
X231250895Y-61753000D01*
X231254474Y-61751316D01*
X231520332Y-61582597D01*
X231762948Y-61381888D01*
X231978495Y-61152354D01*
X232163574Y-60897614D01*
X232181439Y-60865119D01*
X232313363Y-60625149D01*
X232313364Y-60625146D01*
X232315266Y-60621687D01*
X232431180Y-60328923D01*
X232509486Y-60023940D01*
X232548950Y-59711548D01*
X232548950Y-59396672D01*
X232509486Y-59084280D01*
X232431180Y-58779297D01*
X232315266Y-58486533D01*
X232309299Y-58475679D01*
X232165483Y-58214078D01*
X232165481Y-58214075D01*
X232163574Y-58210606D01*
X232045068Y-58047496D01*
X231980823Y-57959070D01*
X231980822Y-57959068D01*
X231978495Y-57955866D01*
X231762948Y-57726332D01*
X231520332Y-57525623D01*
X231337040Y-57409302D01*
X231257821Y-57359028D01*
X231257820Y-57359028D01*
X231254474Y-57356904D01*
X231250895Y-57355220D01*
X231250888Y-57355216D01*
X230973156Y-57224526D01*
X230973152Y-57224524D01*
X230969566Y-57222837D01*
X230670102Y-57125535D01*
X230360804Y-57066533D01*
X230267250Y-57060647D01*
X230127192Y-57051835D01*
X230127176Y-57051834D01*
X230125197Y-57051710D01*
X229967903Y-57051710D01*
X229965924Y-57051834D01*
X229965908Y-57051835D01*
X229825850Y-57060647D01*
X229732296Y-57066533D01*
X229422998Y-57125535D01*
X229123534Y-57222837D01*
X229119948Y-57224524D01*
X229119944Y-57224526D01*
X228842212Y-57355216D01*
X228842205Y-57355220D01*
X228838626Y-57356904D01*
X228835280Y-57359028D01*
X228835279Y-57359028D01*
X228756060Y-57409302D01*
X228572768Y-57525623D01*
X228330152Y-57726332D01*
X228114605Y-57955866D01*
X228112278Y-57959068D01*
X228112277Y-57959070D01*
X228048032Y-58047496D01*
X227929526Y-58210606D01*
X227927619Y-58214075D01*
X227927617Y-58214078D01*
X227783801Y-58475679D01*
X227777834Y-58486533D01*
X227661920Y-58779297D01*
X227583614Y-59084280D01*
X227544150Y-59396672D01*
X227544150Y-59711548D01*
X226341313Y-59711548D01*
X226352811Y-59624800D01*
X226352811Y-59624797D01*
X226353511Y-59619517D01*
X226353209Y-59611460D01*
X226348800Y-59494033D01*
X226344702Y-59384894D01*
X226326908Y-59300088D01*
X226297585Y-59160336D01*
X226297584Y-59160333D01*
X226296488Y-59155109D01*
X226210248Y-58936733D01*
X226140888Y-58822431D01*
X226091214Y-58740571D01*
X226091212Y-58740568D01*
X226088446Y-58736010D01*
X225934565Y-58558678D01*
X225858097Y-58495978D01*
X225757134Y-58413193D01*
X225757128Y-58413189D01*
X225753006Y-58409809D01*
X225748370Y-58407170D01*
X225748367Y-58407168D01*
X225553603Y-58296302D01*
X225548960Y-58293659D01*
X225328261Y-58213549D01*
X225323012Y-58212600D01*
X225323009Y-58212599D01*
X225241935Y-58197939D01*
X225097220Y-58171770D01*
X225093081Y-58171575D01*
X225093074Y-58171574D01*
X225074110Y-58170680D01*
X225074101Y-58170680D01*
X225072621Y-58170610D01*
X224907600Y-58170610D01*
X224826251Y-58177513D01*
X224737913Y-58185008D01*
X224737909Y-58185009D01*
X224732602Y-58185459D01*
X224727447Y-58186797D01*
X224727441Y-58186798D01*
X224549727Y-58232924D01*
X224505344Y-58244443D01*
X224500478Y-58246635D01*
X224500475Y-58246636D01*
X224296133Y-58338686D01*
X224296130Y-58338687D01*
X224291272Y-58340876D01*
X224096509Y-58471998D01*
X223926623Y-58634061D01*
X223923441Y-58638338D01*
X223923440Y-58638339D01*
X223867749Y-58713190D01*
X223811038Y-58755903D01*
X223740238Y-58761176D01*
X223677826Y-58727333D01*
X223652465Y-58691227D01*
X223565964Y-58505724D01*
X223560481Y-58496229D01*
X223524041Y-58444187D01*
X223513562Y-58435811D01*
X223500116Y-58442879D01*
X222798572Y-59144423D01*
X222790958Y-59158367D01*
X222060906Y-59158367D01*
X222062142Y-59156103D01*
X222062011Y-59154270D01*
X222057760Y-59147655D01*
X221352263Y-58442158D01*
X221340488Y-58435728D01*
X221328473Y-58445024D01*
X221292619Y-58496229D01*
X221287136Y-58505724D01*
X221195060Y-58703182D01*
X221191314Y-58713474D01*
X221134925Y-58923923D01*
X221133022Y-58934716D01*
X221114033Y-59151760D01*
X221114033Y-59162710D01*
X220508500Y-59162710D01*
X220508500Y-57703297D01*
X221705043Y-57703297D01*
X221714339Y-57715312D01*
X221765544Y-57751166D01*
X221775039Y-57756649D01*
X221810191Y-57773040D01*
X221863476Y-57819957D01*
X221882937Y-57888234D01*
X221862395Y-57956194D01*
X221810191Y-58001430D01*
X221775039Y-58017821D01*
X221765544Y-58023304D01*
X221713502Y-58059744D01*
X221705126Y-58070223D01*
X221712194Y-58083669D01*
X222413738Y-58785213D01*
X222427682Y-58792827D01*
X222429515Y-58792696D01*
X222436130Y-58788445D01*
X223141627Y-58082948D01*
X223148057Y-58071173D01*
X223138761Y-58059158D01*
X223087556Y-58023304D01*
X223078061Y-58017821D01*
X223042909Y-58001430D01*
X222989624Y-57954513D01*
X222970163Y-57886236D01*
X222990705Y-57818276D01*
X223042909Y-57773040D01*
X223078061Y-57756649D01*
X223087556Y-57751166D01*
X223139598Y-57714726D01*
X223147974Y-57704247D01*
X223140906Y-57690801D01*
X222439362Y-56989257D01*
X222425418Y-56981643D01*
X222423585Y-56981774D01*
X222416970Y-56986025D01*
X221711473Y-57691522D01*
X221705043Y-57703297D01*
X220508500Y-57703297D01*
X220508500Y-56622710D01*
X221114033Y-56622710D01*
X221133022Y-56839754D01*
X221134925Y-56850547D01*
X221191314Y-57060996D01*
X221195060Y-57071288D01*
X221287136Y-57268746D01*
X221292619Y-57278241D01*
X221329059Y-57330283D01*
X221339538Y-57338659D01*
X221352984Y-57331591D01*
X222054528Y-56630047D01*
X222060906Y-56618367D01*
X222790958Y-56618367D01*
X222791089Y-56620200D01*
X222795340Y-56626815D01*
X223500837Y-57332312D01*
X223512612Y-57338742D01*
X223524627Y-57329446D01*
X223560481Y-57278241D01*
X223565964Y-57268746D01*
X223658040Y-57071288D01*
X223661786Y-57060996D01*
X223718175Y-56850547D01*
X223720078Y-56839754D01*
X223739067Y-56622710D01*
X223739067Y-56611760D01*
X223720078Y-56394716D01*
X223718175Y-56383923D01*
X223661786Y-56173474D01*
X223658040Y-56163182D01*
X223565964Y-55965724D01*
X223560481Y-55956229D01*
X223524041Y-55904187D01*
X223513562Y-55895811D01*
X223500116Y-55902879D01*
X222798572Y-56604423D01*
X222790958Y-56618367D01*
X222060906Y-56618367D01*
X222062142Y-56616103D01*
X222062011Y-56614270D01*
X222057760Y-56607655D01*
X221352263Y-55902158D01*
X221340488Y-55895728D01*
X221328473Y-55905024D01*
X221292619Y-55956229D01*
X221287136Y-55965724D01*
X221195060Y-56163182D01*
X221191314Y-56173474D01*
X221134925Y-56383923D01*
X221133022Y-56394716D01*
X221114033Y-56611760D01*
X221114033Y-56622710D01*
X220508500Y-56622710D01*
X220508500Y-51053250D01*
X220510246Y-51032345D01*
X220512770Y-51017344D01*
X220512770Y-51017341D01*
X220513576Y-51012552D01*
X220513729Y-51000000D01*
X220513040Y-50995188D01*
X220512723Y-50990327D01*
X220513008Y-50990308D01*
X220512607Y-50963549D01*
X220519234Y-50904736D01*
X220525513Y-50877229D01*
X220552485Y-50800147D01*
X220564727Y-50774726D01*
X220608178Y-50705574D01*
X220625770Y-50683515D01*
X220683515Y-50625770D01*
X220705574Y-50608178D01*
X220774726Y-50564727D01*
X220800147Y-50552485D01*
X220877228Y-50525513D01*
X220904736Y-50519234D01*
X220960226Y-50512982D01*
X220975866Y-50513077D01*
X220975877Y-50512200D01*
X220984850Y-50512309D01*
X220993724Y-50513691D01*
X220999745Y-50512904D01*
X221066217Y-50533306D01*
X221112052Y-50587524D01*
X221122072Y-50652071D01*
X221118419Y-50685699D01*
X221118419Y-50685702D01*
X221118050Y-50689101D01*
X221118050Y-52385369D01*
X221124805Y-52447551D01*
X221175935Y-52583940D01*
X221263289Y-52700496D01*
X221379845Y-52787850D01*
X221516234Y-52838980D01*
X221527024Y-52840152D01*
X221529156Y-52841038D01*
X221531772Y-52841660D01*
X221531671Y-52842083D01*
X221592585Y-52867390D01*
X221633013Y-52925752D01*
X221635472Y-52996706D01*
X221599179Y-53057725D01*
X221590519Y-53064724D01*
X221586757Y-53067881D01*
X221582250Y-53071037D01*
X221420352Y-53232935D01*
X221417195Y-53237443D01*
X221417193Y-53237446D01*
X221393460Y-53271341D01*
X221289027Y-53420486D01*
X221286704Y-53425468D01*
X221286701Y-53425473D01*
X221244856Y-53515211D01*
X221192266Y-53627992D01*
X221190844Y-53633300D01*
X221190843Y-53633302D01*
X221136228Y-53837128D01*
X221133007Y-53849148D01*
X221113052Y-54077235D01*
X221133007Y-54305322D01*
X221134431Y-54310635D01*
X221134431Y-54310637D01*
X221176913Y-54469179D01*
X221192266Y-54526478D01*
X221194589Y-54531459D01*
X221194589Y-54531460D01*
X221286701Y-54728997D01*
X221286704Y-54729002D01*
X221289027Y-54733984D01*
X221420352Y-54921535D01*
X221582250Y-55083433D01*
X221586758Y-55086590D01*
X221586761Y-55086592D01*
X221643696Y-55126458D01*
X221769801Y-55214758D01*
X221774783Y-55217081D01*
X221774788Y-55217084D01*
X221809599Y-55233316D01*
X221862884Y-55280233D01*
X221882345Y-55348510D01*
X221861803Y-55416470D01*
X221809599Y-55461706D01*
X221775039Y-55477821D01*
X221765544Y-55483304D01*
X221713502Y-55519744D01*
X221705126Y-55530223D01*
X221712194Y-55543669D01*
X222413738Y-56245213D01*
X222427682Y-56252827D01*
X222429515Y-56252696D01*
X222436130Y-56248445D01*
X223141627Y-55542948D01*
X223148057Y-55531173D01*
X223138761Y-55519158D01*
X223087556Y-55483304D01*
X223078061Y-55477821D01*
X223043501Y-55461706D01*
X222990216Y-55414789D01*
X222970755Y-55346512D01*
X222991297Y-55278552D01*
X223043501Y-55233316D01*
X223078312Y-55217084D01*
X223078317Y-55217081D01*
X223083299Y-55214758D01*
X223209404Y-55126458D01*
X223266339Y-55086592D01*
X223266342Y-55086590D01*
X223270850Y-55083433D01*
X223432748Y-54921535D01*
X223564073Y-54733984D01*
X223566396Y-54729002D01*
X223566399Y-54728997D01*
X223658511Y-54531460D01*
X223658511Y-54531459D01*
X223660834Y-54526478D01*
X223674867Y-54474110D01*
X225867999Y-54474110D01*
X225868387Y-54479040D01*
X225877424Y-54593864D01*
X225877513Y-54595081D01*
X225920305Y-55215556D01*
X225921337Y-55230526D01*
X225921699Y-55232963D01*
X225921700Y-55232974D01*
X225933362Y-55311519D01*
X225949643Y-55421177D01*
X226026725Y-55666469D01*
X226028928Y-55670899D01*
X226028930Y-55670903D01*
X226100726Y-55815248D01*
X226141231Y-55896683D01*
X226144101Y-55900715D01*
X226144103Y-55900718D01*
X226231599Y-56023631D01*
X226290340Y-56106149D01*
X226470381Y-56289712D01*
X226578537Y-56369903D01*
X226672939Y-56439897D01*
X226672943Y-56439899D01*
X226676921Y-56442849D01*
X226904874Y-56561792D01*
X227075660Y-56619118D01*
X227143941Y-56642037D01*
X227143944Y-56642038D01*
X227148628Y-56643610D01*
X227402179Y-56686289D01*
X227407129Y-56686337D01*
X227407130Y-56686337D01*
X227595499Y-56688160D01*
X227659286Y-56688778D01*
X227913616Y-56651018D01*
X227937190Y-56643610D01*
X228154177Y-56575422D01*
X228154180Y-56575421D01*
X228158908Y-56573935D01*
X228389123Y-56459430D01*
X228495194Y-56383923D01*
X228594549Y-56313197D01*
X228594550Y-56313196D01*
X228598589Y-56310321D01*
X228782152Y-56130280D01*
X228935289Y-55923739D01*
X229037721Y-55727428D01*
X229051941Y-55700175D01*
X229051941Y-55700174D01*
X229054231Y-55695786D01*
X229062584Y-55670903D01*
X229134476Y-55456719D01*
X229134477Y-55456716D01*
X229136049Y-55452032D01*
X229178729Y-55198481D01*
X229178959Y-55174726D01*
X229180571Y-55008236D01*
X229180571Y-55008234D01*
X229180595Y-55005750D01*
X229177425Y-54959777D01*
X229145012Y-54489799D01*
X229144713Y-54481130D01*
X229144713Y-54479040D01*
X229145101Y-54474110D01*
X229135674Y-54354318D01*
X229135585Y-54353107D01*
X229134727Y-54340665D01*
X229131763Y-54297694D01*
X229131399Y-54295241D01*
X229131237Y-54294147D01*
X229130261Y-54285542D01*
X229125317Y-54222721D01*
X229125316Y-54222715D01*
X229124928Y-54217784D01*
X229115463Y-54178356D01*
X229113047Y-54168292D01*
X229110932Y-54157386D01*
X229104183Y-54111932D01*
X229104182Y-54111929D01*
X229103457Y-54107044D01*
X229083076Y-54042187D01*
X229080777Y-54033879D01*
X229064905Y-53967770D01*
X229058357Y-53951960D01*
X229045427Y-53920745D01*
X229041632Y-53910303D01*
X229038700Y-53900971D01*
X229026375Y-53861752D01*
X228996105Y-53800894D01*
X228992520Y-53793017D01*
X228968407Y-53734801D01*
X228968403Y-53734793D01*
X228966510Y-53730223D01*
X228939912Y-53686819D01*
X228934530Y-53677097D01*
X228914074Y-53635971D01*
X228911869Y-53631537D01*
X228872453Y-53576165D01*
X228867670Y-53568931D01*
X228864403Y-53563600D01*
X228832166Y-53510994D01*
X228799111Y-53472292D01*
X228792273Y-53463531D01*
X228765626Y-53426097D01*
X228765625Y-53426096D01*
X228762760Y-53422071D01*
X228759302Y-53418545D01*
X228759295Y-53418537D01*
X228715176Y-53373555D01*
X228709319Y-53367157D01*
X228668394Y-53319240D01*
X228668389Y-53319235D01*
X228665181Y-53315479D01*
X228626480Y-53282425D01*
X228618358Y-53274844D01*
X228586180Y-53242036D01*
X228586175Y-53242032D01*
X228582719Y-53238508D01*
X228528105Y-53198015D01*
X228521357Y-53192642D01*
X228469666Y-53148494D01*
X228426270Y-53121901D01*
X228417060Y-53115682D01*
X228380159Y-53088322D01*
X228376179Y-53085371D01*
X228371790Y-53083081D01*
X228371787Y-53083079D01*
X228315922Y-53053930D01*
X228308393Y-53049666D01*
X228250437Y-53014150D01*
X228245866Y-53012257D01*
X228245859Y-53012253D01*
X228203411Y-52994671D01*
X228193341Y-52989969D01*
X228152620Y-52968721D01*
X228152613Y-52968718D01*
X228148226Y-52966429D01*
X228143537Y-52964855D01*
X228143532Y-52964853D01*
X228083797Y-52944803D01*
X228075694Y-52941769D01*
X228012890Y-52915755D01*
X227963397Y-52903873D01*
X227952713Y-52900804D01*
X227909159Y-52886184D01*
X227909156Y-52886183D01*
X227904472Y-52884611D01*
X227851807Y-52875746D01*
X227837458Y-52873330D01*
X227828961Y-52871597D01*
X227767691Y-52856888D01*
X227767692Y-52856888D01*
X227762876Y-52855732D01*
X227724343Y-52852700D01*
X227712138Y-52851739D01*
X227701109Y-52850379D01*
X227655804Y-52842753D01*
X227650921Y-52841931D01*
X227645971Y-52841883D01*
X227645970Y-52841883D01*
X227582969Y-52841273D01*
X227574304Y-52840891D01*
X227511481Y-52835947D01*
X227511480Y-52835947D01*
X227506550Y-52835559D01*
X227501620Y-52835947D01*
X227455806Y-52839553D01*
X227444698Y-52839935D01*
X227398770Y-52839490D01*
X227393814Y-52839442D01*
X227368469Y-52843205D01*
X227326600Y-52849421D01*
X227317982Y-52850399D01*
X227255161Y-52855343D01*
X227255156Y-52855344D01*
X227250224Y-52855732D01*
X227245410Y-52856888D01*
X227245402Y-52856889D01*
X227200735Y-52867613D01*
X227189832Y-52869727D01*
X227170418Y-52872610D01*
X227144384Y-52876475D01*
X227144378Y-52876476D01*
X227139484Y-52877203D01*
X227074627Y-52897584D01*
X227066319Y-52899883D01*
X227000210Y-52915755D01*
X226995643Y-52917647D01*
X226995639Y-52917648D01*
X226953185Y-52935233D01*
X226942748Y-52939026D01*
X226894192Y-52954285D01*
X226833334Y-52984555D01*
X226825457Y-52988140D01*
X226767241Y-53012253D01*
X226767233Y-53012257D01*
X226762663Y-53014150D01*
X226758445Y-53016735D01*
X226758443Y-53016736D01*
X226719259Y-53040748D01*
X226709537Y-53046130D01*
X226663977Y-53068791D01*
X226636540Y-53088322D01*
X226608605Y-53108207D01*
X226601378Y-53112986D01*
X226543434Y-53148494D01*
X226539673Y-53151706D01*
X226539672Y-53151707D01*
X226504732Y-53181549D01*
X226495971Y-53188387D01*
X226454511Y-53217900D01*
X226450985Y-53221358D01*
X226450977Y-53221365D01*
X226405995Y-53265484D01*
X226399597Y-53271341D01*
X226351680Y-53312266D01*
X226351675Y-53312271D01*
X226347919Y-53315479D01*
X226344711Y-53319235D01*
X226314866Y-53354179D01*
X226307284Y-53362302D01*
X226274476Y-53394480D01*
X226274472Y-53394485D01*
X226270948Y-53397941D01*
X226230455Y-53452555D01*
X226225082Y-53459303D01*
X226180934Y-53510994D01*
X226178350Y-53515211D01*
X226154341Y-53554390D01*
X226148122Y-53563600D01*
X226117811Y-53604481D01*
X226115521Y-53608870D01*
X226115519Y-53608873D01*
X226086370Y-53664738D01*
X226082106Y-53672267D01*
X226046590Y-53730223D01*
X226044697Y-53734794D01*
X226044693Y-53734801D01*
X226027111Y-53777249D01*
X226022409Y-53787319D01*
X226001161Y-53828040D01*
X226001158Y-53828047D01*
X225998869Y-53832434D01*
X225997295Y-53837123D01*
X225997293Y-53837128D01*
X225977243Y-53896863D01*
X225974209Y-53904966D01*
X225948195Y-53967770D01*
X225947041Y-53972577D01*
X225936313Y-54017264D01*
X225933244Y-54027947D01*
X225922356Y-54060385D01*
X225917051Y-54076188D01*
X225913593Y-54096732D01*
X225905770Y-54143202D01*
X225904037Y-54151699D01*
X225896186Y-54184402D01*
X225888172Y-54217784D01*
X225885392Y-54253107D01*
X225884179Y-54268522D01*
X225882819Y-54279551D01*
X225875694Y-54321879D01*
X225874371Y-54329739D01*
X225874323Y-54334689D01*
X225874323Y-54334690D01*
X225873713Y-54397692D01*
X225873331Y-54406357D01*
X225867999Y-54474110D01*
X223674867Y-54474110D01*
X223676188Y-54469179D01*
X223718669Y-54310637D01*
X223718669Y-54310635D01*
X223720093Y-54305322D01*
X223740048Y-54077235D01*
X223720093Y-53849148D01*
X223716872Y-53837128D01*
X223662257Y-53633302D01*
X223662256Y-53633300D01*
X223660834Y-53627992D01*
X223608244Y-53515211D01*
X223566399Y-53425473D01*
X223566396Y-53425468D01*
X223564073Y-53420486D01*
X223459640Y-53271341D01*
X223435907Y-53237446D01*
X223435905Y-53237443D01*
X223432748Y-53232935D01*
X223270850Y-53071037D01*
X223266339Y-53067878D01*
X223262126Y-53064343D01*
X223263077Y-53063209D01*
X223223079Y-53013164D01*
X223215774Y-52942545D01*
X223247808Y-52879186D01*
X223309012Y-52843205D01*
X223326067Y-52840153D01*
X223336866Y-52838980D01*
X223473255Y-52787850D01*
X223589811Y-52700496D01*
X223677165Y-52583940D01*
X223728295Y-52447551D01*
X223735050Y-52385369D01*
X223735050Y-50689101D01*
X223734681Y-50685702D01*
X223730597Y-50648107D01*
X223743125Y-50578225D01*
X223791446Y-50526209D01*
X223855860Y-50508500D01*
X236547451Y-50508500D01*
X236615572Y-50528502D01*
G37*
%TD.AperFunction*%
%TD*%
M02*
