%TF.GenerationSoftware,KiCad,Pcbnew,(6.0.6)*%
%TF.CreationDate,2022-09-08T19:20:13+10:00*%
%TF.ProjectId,milk,6d696c6b-2e6b-4696-9361-645f70636258,rev?*%
%TF.SameCoordinates,Original*%
%TF.FileFunction,Soldermask,Top*%
%TF.FilePolarity,Negative*%
%FSLAX46Y46*%
G04 Gerber Fmt 4.6, Leading zero omitted, Abs format (unit mm)*
G04 Created by KiCad (PCBNEW (6.0.6)) date 2022-09-08 19:20:13*
%MOMM*%
%LPD*%
G01*
G04 APERTURE LIST*
G04 Aperture macros list*
%AMRoundRect*
0 Rectangle with rounded corners*
0 $1 Rounding radius*
0 $2 $3 $4 $5 $6 $7 $8 $9 X,Y pos of 4 corners*
0 Add a 4 corners polygon primitive as box body*
4,1,4,$2,$3,$4,$5,$6,$7,$8,$9,$2,$3,0*
0 Add four circle primitives for the rounded corners*
1,1,$1+$1,$2,$3*
1,1,$1+$1,$4,$5*
1,1,$1+$1,$6,$7*
1,1,$1+$1,$8,$9*
0 Add four rect primitives between the rounded corners*
20,1,$1+$1,$2,$3,$4,$5,0*
20,1,$1+$1,$4,$5,$6,$7,0*
20,1,$1+$1,$6,$7,$8,$9,0*
20,1,$1+$1,$8,$9,$2,$3,0*%
%AMHorizOval*
0 Thick line with rounded ends*
0 $1 width*
0 $2 $3 position (X,Y) of the first rounded end (center of the circle)*
0 $4 $5 position (X,Y) of the second rounded end (center of the circle)*
0 Add line between two ends*
20,1,$1,$2,$3,$4,$5,0*
0 Add two circle primitives to create the rounded ends*
1,1,$1,$2,$3*
1,1,$1,$4,$5*%
G04 Aperture macros list end*
%ADD10RoundRect,0.051000X0.850000X-0.850000X0.850000X0.850000X-0.850000X0.850000X-0.850000X-0.850000X0*%
%ADD11O,1.802000X1.802000*%
%ADD12RoundRect,0.051000X0.850000X0.850000X-0.850000X0.850000X-0.850000X-0.850000X0.850000X-0.850000X0*%
%ADD13RoundRect,0.051000X-0.800000X0.800000X-0.800000X-0.800000X0.800000X-0.800000X0.800000X0.800000X0*%
%ADD14C,1.702000*%
%ADD15C,1.852000*%
%ADD16C,4.089800*%
%ADD17C,2.352000*%
%ADD18HorizOval,2.352000X-0.655001X0.730000X0.655001X-0.730000X0*%
%ADD19HorizOval,2.352000X-0.020000X0.290000X0.020000X-0.290000X0*%
G04 APERTURE END LIST*
D10*
%TO.C,J1*%
X224875000Y-85600000D03*
D11*
X227415000Y-85600000D03*
X229955000Y-85600000D03*
%TD*%
D12*
%TO.C,J4*%
X236753400Y-85775800D03*
D11*
X236753400Y-83235800D03*
%TD*%
D13*
%TO.C,U1*%
X222426550Y-51537235D03*
D14*
X222426550Y-54077235D03*
X222426550Y-56617235D03*
X222426550Y-59157235D03*
X222426550Y-61697235D03*
X222426550Y-64237235D03*
X222426550Y-66777235D03*
X222426550Y-69317235D03*
X222426550Y-71857235D03*
X222426550Y-74397235D03*
X222426550Y-76937235D03*
X222426550Y-79477235D03*
X237666550Y-79477235D03*
X237666550Y-76937235D03*
X237666550Y-74397235D03*
X237666550Y-71857235D03*
X237666550Y-69317235D03*
X237666550Y-66777235D03*
X237666550Y-64237235D03*
X237666550Y-61697235D03*
X237666550Y-59157235D03*
X237666550Y-56617235D03*
X237666550Y-54077235D03*
X237666550Y-51537235D03*
%TD*%
D15*
%TO.C,K1*%
X224966550Y-59554110D03*
X235126550Y-59554110D03*
D16*
X230046550Y-59554110D03*
D17*
X232546550Y-55554110D03*
D18*
X233201549Y-56284110D03*
D19*
X227526550Y-54764110D03*
D17*
X227506550Y-54474110D03*
%TD*%
D16*
%TO.C,K2*%
X230046550Y-78604110D03*
D15*
X235126550Y-78604110D03*
X224966550Y-78604110D03*
D17*
X232546550Y-74604110D03*
D18*
X233201549Y-75334110D03*
D19*
X227526550Y-73814110D03*
D17*
X227506550Y-73524110D03*
%TD*%
M02*
