M48
; DRILL file {KiCad (6.0.6)} date Thu Sep  8 19:20:13 2022
; FORMAT={-:-/ absolute / inch / decimal}
; #@! TF.CreationDate,2022-09-08T19:20:13+10:00
; #@! TF.GenerationSoftware,Kicad,Pcbnew,(6.0.6)
; #@! TF.FileFunction,Plated,1,2,PTH
FMAT,2
INCH
; #@! TA.AperFunction,Plated,PTH,ComponentDrill
T1C0.0394
; #@! TA.AperFunction,Plated,PTH,ComponentDrill
T2C0.0433
; #@! TA.AperFunction,Plated,PTH,ComponentDrill
T3C0.0579
%
G90
G05
T1
X8.8533Y-3.3701
X8.9533Y-3.3701
X9.0533Y-3.3701
X9.321Y-3.277
X9.321Y-3.377
T2
X8.757Y-2.029
X8.757Y-2.129
X8.757Y-2.229
X8.757Y-2.329
X8.757Y-2.429
X8.757Y-2.529
X8.757Y-2.629
X8.757Y-2.729
X8.757Y-2.829
X8.757Y-2.929
X8.757Y-3.029
X8.757Y-3.129
X9.357Y-2.029
X9.357Y-2.129
X9.357Y-2.229
X9.357Y-2.329
X9.357Y-2.429
X9.357Y-2.529
X9.357Y-2.629
X9.357Y-2.729
X9.357Y-2.829
X9.357Y-2.929
X9.357Y-3.029
X9.357Y-3.129
T3
X8.957Y-2.1446
X8.957Y-2.8946
X8.9585Y-2.1675
X8.9585Y-2.9175
X9.1554Y-2.1872
X9.1554Y-2.9372
X9.207Y-2.2447
X9.207Y-2.9947
T0
M30
